<svg width="19" height="18" viewBox="0 0 19 18" fill="none" xmlns="http://www.w3.org/2000/svg">
<path d="M16.25 8.25C16.0511 8.25 15.8603 8.32902 15.7197 8.46967C15.579 8.61032 15.5 8.80109 15.5 9C15.5089 10.4048 15.0277 11.7687 14.1392 12.8568C13.2508 13.945 12.0106 14.6893 10.6325 14.9615C9.2543 15.2337 7.82434 15.0167 6.58888 14.3481C5.35342 13.6794 4.38981 12.6009 3.86399 11.2982C3.33818 9.9955 3.2831 8.55024 3.70822 7.21131C4.13334 5.87238 5.01206 4.7236 6.19303 3.96283C7.374 3.20207 8.7833 2.87693 10.1782 3.04343C11.5731 3.20993 12.8663 3.85764 13.835 4.875H12.035C11.8361 4.875 11.6453 4.95402 11.5047 5.09467C11.364 5.23532 11.285 5.42609 11.285 5.625C11.285 5.82391 11.364 6.01468 11.5047 6.15533C11.6453 6.29598 11.8361 6.375 12.035 6.375H15.4325C15.6314 6.375 15.8222 6.29598 15.9628 6.15533C16.1035 6.01468 16.1825 5.82391 16.1825 5.625V2.25C16.1825 2.05109 16.1035 1.86032 15.9628 1.71967C15.8222 1.57902 15.6314 1.5 15.4325 1.5C15.2336 1.5 15.0428 1.57902 14.9022 1.71967C14.7615 1.86032 14.6825 2.05109 14.6825 2.25V3.5775C13.4335 2.38354 11.8106 1.65746 10.088 1.522C8.36547 1.38653 6.64897 1.84998 5.22869 2.83402C3.80841 3.81805 2.77146 5.2623 2.29312 6.92264C1.81479 8.58298 1.92441 10.3576 2.60346 11.9464C3.28251 13.5352 4.48933 14.8409 6.01993 15.6426C7.55052 16.4444 9.311 16.6931 11.0038 16.3466C12.6966 16.0002 14.2178 15.0799 15.3104 13.7413C16.4029 12.4027 16.9998 10.7279 17 9C17 8.80109 16.921 8.61032 16.7803 8.46967C16.6397 8.32902 16.4489 8.25 16.25 8.25Z" fill="#00639A"/>
</svg>
