<svg width="64" height="64" viewBox="0 0 64 64" fill="none" xmlns="http://www.w3.org/2000/svg">
<rect width="64" height="64" fill="#364056"/>
<rect id="Rectangle 859" x="-2191" y="-699" width="4438" height="4088.94" rx="32" fill="#414D69"/>
<g id="Activity Default ">
<rect width="64" height="64" rx="32" fill="#63B1F3"/>
<g id="Group 705">
<g id="layer1">
<path id="path21301" d="M12.082 18.893V49.0357C12.082 50.9637 13.6342 52.5158 15.5622 52.5158H43.0754C45.0034 52.5158 46.5556 50.9637 46.5556 49.0357V12.2455C46.5556 10.3175 45.0034 8.76532 43.0754 8.76532H22.2097L12.082 18.893Z" fill="#FCFCFF"/>
<path id="path21830" d="M22 9L12 19H19.349C20.8177 19 22 17.8176 22 16.349V9Z" fill="#CEE5FF"/>
<g id="Group">
<path id="path10395" d="M54.2946 18.5971C53.4984 17.801 52.2165 17.801 51.4203 18.5971L33.2723 36.7451L40.2415 43.7143L49.3155 34.6403L58.3895 25.5663C59.1856 24.7701 59.1856 23.4882 58.3895 22.692L54.2946 18.5971Z" fill="#63B1F3"/>
<path id="path10397" d="M56.9959 21.2983C57.792 22.0945 57.792 23.3765 56.9959 24.1727L38.8478 42.3207L40.2415 43.7143L58.3895 25.5663C59.1857 24.7701 59.1857 23.4882 58.3895 22.692L56.9959 21.2983Z" fill="#4597D6"/>
<path id="path10399" d="M48.7862 21.2313L45.9588 24.0586L52.928 31.0278L55.7553 28.2004L48.7862 21.2313Z" fill="#CEE5FF"/>
<path id="path10401" d="M54.3617 26.8068L51.5344 29.6341L52.928 31.0278L55.7554 28.2004L54.3617 26.8068Z" fill="#96CCFF"/>
<path id="path10403" d="M54.2946 18.5971C53.4985 17.801 52.2165 17.801 51.4203 18.5971L48.1765 21.841L55.1457 28.8102L58.3895 25.5663C59.1857 24.7701 59.1857 23.4882 58.3895 22.692L54.2946 18.5971Z" fill="#E8F2FF"/>
<path id="path10405" d="M36.5414 37.0158H34.6971C34.2298 37.0158 33.811 36.8158 33.521 36.4965L32.011 38.0065C31.5265 38.491 31.3693 38.885 31.3496 39.4944L31.37 44.2781C31.37 44.71 31.4882 45.0349 31.7229 45.2638C31.9517 45.4984 32.2766 45.6166 32.7085 45.6166L37.4922 45.6371C38.1016 45.6175 38.4957 45.4602 38.9801 44.9757L40.4902 43.4656C40.1708 43.1757 39.9708 42.7569 39.9708 42.2896V40.4452L38.1263 40.4451C37.6873 40.4451 37.291 40.2686 37.0042 39.9824C36.7181 39.6956 36.5416 39.2994 36.5416 38.8604L36.5414 37.0158Z" fill="#CEE5FF"/>
<g id="path10407" filter="url(#filter0_d_630_21242)">
<path d="M35.1478 37.0158V37.4666C35.1478 38.408 35.469 39.041 36.5519 39.041C36.5453 38.9817 36.5414 38.9214 36.5414 38.8603L36.5413 37.0158H35.1478ZM38.5771 40.4451C38.5771 40.4451 38.4337 41.4703 39.0965 42.0719L37.5864 43.582C37.1019 44.0664 36.7079 44.2238 36.0985 44.2434L31.3698 44.2231L31.37 44.2781C31.37 44.71 31.4882 45.0349 31.7229 45.2637C31.9517 45.4984 32.2766 45.6165 32.7085 45.6165L37.4921 45.6371C38.1015 45.6175 38.4956 45.4601 38.9801 44.9756L40.4902 43.4656C40.1708 43.1757 39.9707 42.7568 39.9708 42.2896V40.4452L38.5771 40.4451Z" fill="#96CCFF"/>
</g>
<path id="path10409" d="M31.354 40.5367L31.37 44.2782C31.37 44.7101 31.4882 45.035 31.7229 45.2638C31.9517 45.4985 32.2767 45.6167 32.7085 45.6167L36.45 45.6327L31.354 40.5367Z" fill="#00639A"/>
<path id="path10415" d="M57.0645 21.3149C57.8618 22.1124 57.8617 23.3962 57.0643 24.1935L53.8154 27.4424L55.2113 28.8382L58.4602 25.5893C59.2576 24.7919 59.2576 23.508 58.4602 22.7106L57.0645 21.3149Z" fill="#CEE5FF"/>
<path id="path10423" d="M31.3981 44.2757L31.3983 44.3306C31.3983 44.7632 31.5165 45.0886 31.7516 45.3178C31.9808 45.5529 32.3062 45.6713 32.7388 45.6713L36.4861 45.6872L35.0903 44.2914L31.3981 44.2757Z" fill="#004A75"/>
</g>
<g id="Group 707">
<path id="path21518" d="M19.2077 23.4462H21.919C23.6259 23.4462 25.0001 24.8204 25.0001 26.5273V29.2386C25.0001 30.9454 23.6259 32.3196 21.919 32.3196H19.2077C17.5008 32.3196 16.1267 30.9454 16.1267 29.2386V26.5273C16.1267 24.8204 17.5008 23.4462 19.2077 23.4462Z" fill="#63B1F3"/>
<path id="path21560" d="M19.2077 37.298H21.919C23.6259 37.298 25.0001 38.6722 25.0001 40.379V43.0903C25.0001 44.7972 23.6259 46.1713 21.919 46.1713H19.2077C17.5008 46.1713 16.1267 44.7972 16.1267 43.0903V40.379C16.1267 38.6722 17.5008 37.298 19.2077 37.298Z" fill="#63B1F3"/>
<path id="path41137" d="M21.9837 40.3821C21.8571 40.3891 21.7376 40.444 21.6561 40.5257L20.1527 42.0282L19.5076 41.383C19.3148 41.1904 19.0024 41.1904 18.8096 41.383C18.617 41.5758 18.617 41.8882 18.8096 42.081L19.8036 43.0762C19.9965 43.2694 20.3096 43.2694 20.5025 43.0762L22.354 41.2237C22.5466 41.0309 22.5466 40.7185 22.354 40.5257C22.2441 40.4158 22.1104 40.375 21.9837 40.3821Z" fill="#E8F2FF"/>
<path id="path8158" d="M22.0136 26.507C21.8868 26.5041 21.7571 26.5489 21.6561 26.6497L20.1527 28.1531L19.5076 27.5082C19.3148 27.3156 19.0024 27.3156 18.8096 27.5082C18.617 27.701 18.617 28.0133 18.8096 28.2061L19.8036 29.2011C19.9968 29.394 20.3099 29.3936 20.5025 29.2001L22.354 27.3486C22.5473 27.1557 22.5473 26.8426 22.354 26.6497C22.2645 26.5602 22.1405 26.5098 22.0136 26.507Z" fill="#E8F2FF"/>
</g>
</g>
<path id="Vector" d="M40.1523 26.3935H27.686C27.3071 26.3935 27 26.0815 27 25.6967C27 25.3119 27.3071 25 27.686 25H40.1523C40.5312 25 40.8384 25.3119 40.8384 25.6967C40.8384 26.0815 40.5312 26.3935 40.1523 26.3935Z" fill="#207CBB"/>
<path id="Vector_2" d="M36.1523 30.3685H27.686C27.3071 30.3685 27 30.0566 27 29.6718C27 29.287 27.3071 28.975 27.686 28.975H36.1523C36.5312 28.975 36.8384 29.287 36.8384 29.6718C36.8384 30.0566 36.5312 30.3685 36.1523 30.3685Z" fill="#207CBB"/>
<path id="Vector_3" d="M29.1523 40.3935H27.686C27.3071 40.3935 27 40.0815 27 39.6967C27 39.3119 27.3071 39 27.686 39H29.1523C29.5312 39 29.8384 39.3119 29.8384 39.6967C29.8384 40.0815 29.5312 40.3935 29.1523 40.3935Z" fill="#207CBB"/>
<path id="Vector_4" d="M29.1523 44.3685H27.686C27.3071 44.3685 27 44.0566 27 43.6718C27 43.287 27.3071 42.975 27.686 42.975H29.1523C29.5312 42.975 29.8384 43.287 29.8384 43.6718C29.8384 44.0566 29.5312 44.3685 29.1523 44.3685Z" fill="#207CBB"/>
</g>
</g>
<defs>
<filter id="filter0_d_630_21242" x="27.3698" y="37.0158" width="17.1204" height="16.6213" filterUnits="userSpaceOnUse" color-interpolation-filters="sRGB">
<feFlood flood-opacity="0" result="BackgroundImageFix"/>
<feColorMatrix in="SourceAlpha" type="matrix" values="0 0 0 0 0 0 0 0 0 0 0 0 0 0 0 0 0 0 127 0" result="hardAlpha"/>
<feOffset dy="4"/>
<feGaussianBlur stdDeviation="2"/>
<feComposite in2="hardAlpha" operator="out"/>
<feColorMatrix type="matrix" values="0 0 0 0 0 0 0 0 0 0 0 0 0 0 0 0 0 0 0.25 0"/>
<feBlend mode="normal" in2="BackgroundImageFix" result="effect1_dropShadow_630_21242"/>
<feBlend mode="normal" in="SourceGraphic" in2="effect1_dropShadow_630_21242" result="shape"/>
</filter>
</defs>
</svg>
