<svg width="64" height="64" viewBox="0 0 64 64" fill="none" xmlns="http://www.w3.org/2000/svg">
<rect width="64" height="64" fill="#364056"/>
<rect id="Rectangle 859" x="-2191" y="-793" width="4438" height="4088.94" rx="32" fill="#414D69"/>
<g id="Activity Flow Default ">
<rect width="64" height="64" rx="32" fill="#004A75"/>
<g id="Group 706">
<g id="Group">
<g id="Group_2">
<path id="Vector" d="M28.1722 47.766V28.1072C28.1722 26.6645 29.3419 25.4948 30.7846 25.4948H51.2866C52.7293 25.4948 53.899 26.6645 53.899 28.1072V52.3876C53.899 53.8303 52.7293 55 51.2866 55H35.4061L28.1722 47.766Z" fill="#63B1F3"/>
<path id="Vector_2" d="M28.1722 47.766H32.7938C34.2365 47.766 35.4062 48.9357 35.4062 50.3784V54.9999" fill="#207CBB"/>
</g>
<g id="Group_3">
<path id="Vector_3" d="M18.3006 54.7314L24.7022 51.5718C25.3453 51.2547 25.6703 50.6226 25.6544 49.9944C25.6425 49.4706 25.3939 48.9478 24.895 48.6149L18.9584 44.6503C17.8641 43.9188 16.3872 44.6473 16.3017 45.9612L16.2828 46.2485C15.2522 45.3232 14.4282 44.1752 13.8746 42.8653C13.333 41.5831 11.854 40.9838 10.5729 41.5255C10.4198 41.59 10.2757 41.6686 10.1425 41.759C9.16357 42.4179 8.75503 43.6981 9.23212 44.8272C10.5609 47.9718 12.9066 50.5073 15.9021 52.0696L15.8355 53.0864C15.7502 54.4004 17.1198 55.3148 18.3006 54.7314Z" fill="#207CBB"/>
<path id="Vector_4" d="M25.1753 51.2289C25.5033 50.894 25.6653 50.4437 25.6544 49.9955C25.6425 49.4717 25.3939 48.9489 24.895 48.6149L18.9584 44.6513C17.8641 43.9187 16.3872 44.6482 16.3017 45.9612L16.2828 46.2495C15.2522 45.3241 14.4282 44.1762 13.8746 42.8662C13.333 41.5831 11.854 40.9848 10.5729 41.5264C10.4198 41.5911 10.2757 41.6696 10.1425 41.759C9.16357 42.419 8.75503 43.698 9.23212 44.8281C9.26293 44.9017 9.29472 44.9743 9.32651 45.0468C9.51635 44.689 9.79268 44.3749 10.1425 44.1394C10.2757 44.049 10.4198 43.9704 10.5729 43.9058C11.854 43.3641 13.333 43.9635 13.8746 45.2456C14.4283 46.5556 15.2522 47.7035 16.2828 48.6289L16.3017 48.3416C16.3872 47.0276 17.8641 46.2992 18.9584 47.0307L24.895 50.9953C24.9994 51.066 25.0938 51.1445 25.1753 51.2289Z" fill="#96CCFF"/>
</g>
<g id="Group_4">
<path id="Vector_5" d="M48.2687 33.947H33.8024C33.4235 33.947 33.1164 33.6398 33.1164 33.2609C33.1164 32.8821 33.4235 32.5749 33.8024 32.5749H48.2687C48.6476 32.5749 48.9547 32.8821 48.9547 33.2609C48.9547 33.6398 48.6476 33.947 48.2687 33.947Z" fill="#00639A"/>
<path id="Vector_6" d="M48.2687 37.8608H33.8024C33.4235 37.8608 33.1163 37.5536 33.1163 37.1747C33.1163 36.7958 33.4235 36.4887 33.8024 36.4887H48.2687C48.6475 36.4887 48.9547 36.7958 48.9547 37.1747C48.9547 37.5536 48.6475 37.8608 48.2687 37.8608Z" fill="#00639A"/>
<path id="Vector_7" d="M48.2687 41.7745H33.8024C33.4235 41.7745 33.1163 41.4674 33.1163 41.0885C33.1163 40.7096 33.4235 40.4025 33.8024 40.4025H48.2687C48.6475 40.4025 48.9547 40.7096 48.9547 41.0885C48.9547 41.4674 48.6475 41.7745 48.2687 41.7745Z" fill="#00639A"/>
<path id="Vector_8" d="M48.2687 45.6883H33.8024C33.4235 45.6883 33.1163 45.3811 33.1163 45.0022C33.1163 44.6234 33.4235 44.3162 33.8024 44.3162H48.2687C48.6475 44.3162 48.9547 44.6234 48.9547 45.0022C48.9547 45.3811 48.6475 45.6883 48.2687 45.6883Z" fill="#00639A"/>
</g>
<g id="Group_5">
<path id="Vector_9" d="M44.7142 9.71738L38.2999 12.8832C37.6556 13.2009 37.3299 13.8342 37.3459 14.4636C37.3579 14.9884 37.6068 15.5122 38.1067 15.8458L44.0549 19.8182C45.1513 20.5512 46.6312 19.8212 46.7168 18.5047L46.7357 18.2169C47.7683 19.144 48.594 20.2942 49.1487 21.6068C49.6914 22.8915 51.1732 23.492 52.4568 22.9492C52.6102 22.8845 52.7546 22.8058 52.888 22.7152C53.8689 22.0549 54.2782 20.7723 53.8002 19.641C52.4687 16.4901 50.1185 13.9497 47.1171 12.3843L47.1838 11.3656C47.2695 10.049 45.8973 9.13285 44.7142 9.71738Z" fill="#96CCFF"/>
<path id="Vector_10" d="M37.8259 13.2268C37.4972 13.5624 37.3349 14.0135 37.3459 14.4626C37.3578 14.9874 37.6067 15.5113 38.1066 15.8458L44.0549 19.8172C45.1513 20.5512 46.6311 19.8203 46.7167 18.5047L46.7356 18.2159C47.7683 19.143 48.5939 20.2933 49.1486 21.6057C49.6913 22.8914 51.1732 23.4909 52.4568 22.9481C52.6101 22.8834 52.7545 22.8047 52.888 22.7151C53.8689 22.0539 54.2781 20.7722 53.8002 19.6399C53.7693 19.5662 53.7374 19.4935 53.7056 19.4208C53.5154 19.7793 53.2385 20.094 52.888 20.33C52.7545 20.4206 52.6101 20.4994 52.4568 20.564C51.1732 21.1068 49.6913 20.5063 49.1486 19.2216C48.5939 17.9091 47.7684 16.7589 46.7356 15.8317L46.7167 16.1195C46.6311 17.4361 45.1513 18.1659 44.0549 17.433L38.1067 13.4608C38.0021 13.3901 37.9076 13.3114 37.8259 13.2268Z" fill="#207CBB"/>
</g>
<g id="Group_6">
<path id="Vector_11" d="M9.27759 16.8604V36.5192C9.27759 37.9619 10.4473 39.1316 11.89 39.1316H32.392C33.8347 39.1316 35.0044 37.9619 35.0044 36.5192V12.2388C35.0044 10.7961 33.8347 9.62643 32.392 9.62643H16.5115L9.27759 16.8604Z" fill="#CEE5FF"/>
<path id="Vector_12" d="M9.27759 16.8604H13.8992C15.3419 16.8604 16.5116 15.6907 16.5116 14.248V9.62643" fill="#63B1F3"/>
</g>
<g id="Group_7">
<path id="Vector_13" d="M29.374 19.8952H14.9077C14.5288 19.8952 14.2217 19.588 14.2217 19.2092C14.2217 18.8303 14.5288 18.5231 14.9077 18.5231H29.374C29.7529 18.5231 30.06 18.8303 30.06 19.2092C30.06 19.588 29.7529 19.8952 29.374 19.8952Z" fill="#207CBB"/>
<path id="Vector_14" d="M29.374 23.8091H14.9077C14.5288 23.8091 14.2217 23.5019 14.2217 23.1231C14.2217 22.7442 14.5288 22.437 14.9077 22.437H29.374C29.7529 22.437 30.06 22.7442 30.06 23.1231C30.06 23.5019 29.7529 23.8091 29.374 23.8091Z" fill="#207CBB"/>
<path id="Vector_15" d="M29.374 27.7224H14.9078C14.5289 27.7224 14.2218 27.4152 14.2218 27.0364C14.2218 26.6575 14.5289 26.3503 14.9078 26.3503H29.374C29.7528 26.3503 30.06 26.6575 30.06 27.0364C30.06 27.4152 29.7528 27.7224 29.374 27.7224Z" fill="#207CBB"/>
<path id="Vector_16" d="M29.374 31.6362H14.9078C14.5289 31.6362 14.2218 31.329 14.2218 30.9502C14.2218 30.5713 14.5289 30.2641 14.9078 30.2641H29.374C29.7528 30.2641 30.06 30.5713 30.06 30.9502C30.06 31.329 29.7528 31.6362 29.374 31.6362Z" fill="#207CBB"/>
</g>
</g>
</g>
</g>
</svg>
