<svg width="48" height="48" viewBox="0 0 48 48" fill="none" xmlns="http://www.w3.org/2000/svg">
<path d="M40 0H8C3.58172 0 0 3.58172 0 8V40C0 44.4183 3.58172 48 8 48H40C44.4183 48 48 44.4183 48 40V8C48 3.58172 44.4183 0 40 0Z" fill="#90C5EC"/>
<path d="M34.6472 42.7526C36.3871 41.2116 36.5196 38.3615 36.3871 37.2844C34.324 33.3076 29.3331 25.1998 25.8733 24.5834C22.4134 23.967 20.372 26.7292 19.7837 28.1874C18.9801 28.1377 16.7265 28.1874 15.6329 30.3001C14.558 32.3767 15.3015 34.8652 15.8815 35.8428C15.2104 36.6713 14.6636 39.1486 15.7572 40.9133C17.1064 43.0904 19.6678 43.1668 20.6785 43.0011C20.9105 43.5894 21.9412 44.8702 24.208 45.2878C26.4748 45.7054 27.8037 44.3516 28.1848 43.6225C29.6264 44.0782 32.7942 44.3937 34.6472 42.7526Z" fill="white"/>
<path d="M34.6472 42.7526C36.3871 41.2116 36.5196 38.3615 36.3871 37.2844C34.324 33.3076 29.3331 25.1998 25.8733 24.5834C22.4134 23.967 20.372 26.7292 19.7837 28.1874C18.9801 28.1377 16.7265 28.1874 15.6329 30.3001C14.558 32.3767 15.3015 34.8652 15.8815 35.8428C15.2104 36.6713 14.6636 39.1486 15.7572 40.9133C17.1064 43.0904 19.6678 43.1668 20.6785 43.0011C20.9105 43.5894 21.9412 44.8702 24.208 45.2878C26.4748 45.7054 27.8037 44.3516 28.1848 43.6225C29.6264 44.0782 32.7942 44.3937 34.6472 42.7526Z" stroke="black" stroke-width="0.0502366" stroke-linecap="round" stroke-linejoin="round"/>
<path d="M25.6683 34.3458C25.1602 28.8623 20.2907 30.2385 20.1848 30.2173C20.817 28.5918 24.5486 26.6388 28.2538 30.2173C31.2181 33.0801 31.9855 38.2981 31.9986 40.5491C31.7107 38.686 29.6486 38.1638 28.6535 38.1355C28.9584 35.3747 26.7904 34.4587 25.6683 34.3458Z" fill="#D1D3D4"/>
<path d="M26.8958 15.311C26.9639 15.0421 27.2372 14.8793 27.5062 14.9474L42.415 18.7241C42.6839 18.7922 42.8467 19.0655 42.7786 19.3344L37.9898 38.2386C37.9217 38.5075 37.6485 38.6703 37.3795 38.6022L22.4707 34.8255C22.2017 34.7574 22.0389 34.4841 22.107 34.2152L26.8958 15.311Z" fill="#7BA9E5"/>
<path d="M37.9898 38.2386L42.7786 19.3345C42.8467 19.0655 42.6839 18.7922 42.415 18.7241L41.663 18.5336L37.0623 36.6954C36.9942 36.9643 36.7209 37.1271 36.4519 37.059L22.2951 33.4728L22.107 34.2152C22.0389 34.4842 22.2017 34.7574 22.4707 34.8256L37.3795 38.6022C37.6485 38.6704 37.9217 38.5076 37.9898 38.2386Z" fill="#6298D3"/>
<path d="M38.4848 19.164L38.7717 18.0314C38.791 17.955 38.7951 17.8783 38.7858 17.8047L32.5102 16.215C32.467 16.2754 32.434 16.3447 32.4147 16.421L32.1278 17.5536C32.0448 17.8811 32.2431 18.2137 32.5705 18.2967L33.4933 18.5305C33.5834 18.5533 33.6421 18.6385 33.6428 18.7315C33.648 19.4293 34.121 20.0631 34.8291 20.2425C35.5372 20.4218 36.2549 20.0897 36.5917 19.4785C36.6366 19.3971 36.7288 19.35 36.8188 19.3729L37.7417 19.6066C38.0691 19.6896 38.4019 19.4914 38.4848 19.164Z" fill="#6298D3"/>
<path d="M42.4148 18.7241L27.506 14.9475C27.2371 14.8793 26.9638 15.0421 26.8957 15.3111L22.1069 34.2152C22.0388 34.4842 22.2016 34.7574 22.4706 34.8255L37.3794 38.6022C37.6483 38.6703 37.9216 38.5075 37.9897 38.2386L42.7785 19.3345C42.8466 19.0655 42.6838 18.7923 42.4148 18.7241Z" stroke="black" stroke-width="0.0502366" stroke-linecap="round" stroke-linejoin="round"/>
<path d="M39.4124 17.9635L40.3197 18.1933L41.0516 15.3043L40.826 15.2472C40.4494 15.1518 40.0669 15.3797 39.9715 15.7563L39.4124 17.9635Z" fill="black"/>
<path d="M40.3667 20.1363L28.6351 17.1645C28.5006 17.1305 28.364 17.2119 28.3299 17.3463L24.3372 33.1082C24.3031 33.2427 24.3845 33.3793 24.519 33.4134L36.2506 36.3852C36.385 36.4193 36.5217 36.3378 36.5557 36.2034L40.5485 20.4415C40.5826 20.307 40.5012 20.1704 40.3667 20.1363Z" fill="white"/>
<path d="M34.829 20.2425C35.5371 20.4219 36.2548 20.0897 36.5917 19.4785C36.6365 19.3972 36.7287 19.3501 36.8188 19.3729L37.7416 19.6067C37.8802 19.6418 38.0197 19.6265 38.1409 19.5724L32.2356 18.0765C32.3164 18.1818 32.4318 18.2616 32.5704 18.2967L33.4933 18.5305C33.5833 18.5533 33.642 18.6386 33.6427 18.7315C33.6479 19.4294 34.1209 20.0631 34.829 20.2425Z" fill="#E6E6E6"/>
<path d="M40.3667 20.1363L28.6351 17.1645C28.5006 17.1305 28.364 17.2119 28.3299 17.3463L24.3372 33.1082C24.3031 33.2427 24.3845 33.3793 24.519 33.4134L36.2506 36.3852C36.385 36.4193 36.5217 36.3378 36.5557 36.2034L40.5485 20.4415C40.5826 20.307 40.5012 20.1704 40.3667 20.1363Z" stroke="black" stroke-width="0.0502366" stroke-linecap="round" stroke-linejoin="round"/>
<path d="M41.3772 15.1979L42.4166 15.4612L42.7128 14.2917C42.7855 14.0047 42.6118 13.7131 42.3248 13.6404C42.0378 13.5677 41.7462 13.7414 41.6734 14.0284L41.3772 15.1979Z" fill="black"/>
<path d="M41.1673 21.6869L39.5121 21.2676L37.6709 28.5358L39.3261 28.9551L41.1673 21.6869Z" fill="#B9FD4C"/>
<path d="M41.1671 21.6869L39.3259 28.9551L38.623 28.777L40.4618 21.5082L41.1671 21.6869Z" fill="#A8E82E"/>
<path d="M41.1673 21.6869L39.5121 21.2676L37.6709 28.5358L39.3261 28.9551L41.1673 21.6869Z" stroke="black" stroke-width="0.0502366" stroke-linecap="round" stroke-linejoin="round"/>
<path d="M38.0774 30.7497L38.8648 29.8396C39.0853 29.5847 39.2432 29.2818 39.326 28.9551L37.6708 28.5358C37.588 28.8625 37.5827 29.204 37.6553 29.5332L37.9143 30.7084C37.931 30.784 38.0268 30.8083 38.0774 30.7497Z" fill="black"/>
<path d="M37.9059 16.3718L32.7347 15.0619C32.4072 14.9789 32.0745 15.1772 31.9916 15.5046L31.7047 16.6371C31.6217 16.9646 31.8199 17.2973 32.1473 17.3802L33.0702 17.614C33.1603 17.6368 33.219 17.7221 33.2196 17.815C33.2249 18.5128 33.6979 19.1467 34.406 19.326C35.1141 19.5054 35.8318 19.1732 36.1686 18.562C36.2135 18.4807 36.3057 18.4336 36.3957 18.4564L37.3186 18.6902C37.646 18.7731 37.9787 18.5749 38.0616 18.2475L38.3485 17.1149C38.4315 16.7875 38.2333 16.4548 37.9059 16.3718Z" fill="black"/>
<path d="M40.8131 15.5201C40.9493 14.9828 41.4952 14.6576 42.0325 14.7937C42.5698 14.9298 42.8951 15.4757 42.7589 16.013L41.3361 21.6298C41.2816 21.845 41.063 21.9752 40.8478 21.9207L39.6812 21.6251C39.466 21.5706 39.3358 21.352 39.3903 21.1369L40.8131 15.5201Z" fill="#5DC973"/>
<path d="M41.3361 21.6297L42.7589 16.0129C42.8923 15.4867 42.583 14.952 42.0652 14.8025C42.1187 14.9735 42.127 15.161 42.0798 15.3475L40.6569 20.9642C40.6024 21.1794 40.3839 21.3096 40.1687 21.2551L39.4091 21.0627L39.3903 21.1368C39.3358 21.352 39.4661 21.5706 39.6813 21.6251L40.8478 21.9206C41.063 21.9751 41.2816 21.8449 41.3361 21.6297Z" fill="#47B85E"/>
<path d="M40.8131 15.5201C40.9493 14.9828 41.4952 14.6576 42.0325 14.7937C42.5698 14.9298 42.8951 15.4757 42.7589 16.013L41.3361 21.6298C41.2816 21.845 41.063 21.9752 40.8478 21.9207L39.6812 21.6251C39.466 21.5706 39.3358 21.352 39.3903 21.1369L40.8131 15.5201Z" stroke="black" stroke-width="0.0502366" stroke-linecap="round" stroke-linejoin="round"/>
<path d="M31.6562 20.291L38.0891 21.9926M29.0622 22.1794L37.2798 24.4828M28.3152 25.0223L36.6572 27.2842M27.7756 27.8861L35.9102 30.0857M27.2361 30.6875L31.9674 31.9326" stroke="black" stroke-width="0.0502366" stroke-linecap="round" stroke-linejoin="round"/>
<path d="M25.6681 34.3458C25.16 28.8624 20.2904 30.2386 20.1846 30.2174C17.513 36.8861 26.9473 39.8839 31.9984 40.5492C31.7105 38.686 29.6484 38.1638 28.6533 38.1356C28.9582 35.3748 26.7902 34.4588 25.6681 34.3458Z" fill="white"/>
<path d="M20.1848 30.2174C20.2907 30.2386 25.1602 28.8624 25.6683 34.3458C26.7904 34.4588 28.9584 35.3748 28.6535 38.1356C29.6486 38.1638 31.7107 38.686 31.9986 40.5492" stroke="black" stroke-width="0.0502366" stroke-linecap="round" stroke-linejoin="round"/>
<path d="M11.5777 15.4196C11.3316 14.4839 11.1985 12.1101 12.6345 10.0998C14.4296 7.58705 16.2921 6.95995 17.0096 7.31301C17.6957 7.6507 17.7415 8.68417 17.722 9.08727M17.722 9.08727C17.7021 10.7926 17.1756 14.5649 15.8976 14.1606C14.6197 13.7563 16.2611 10.5555 17.722 9.08727ZM17.722 9.08727C18.204 8.7016 18.9164 8.23229 19.4337 9.56486M19.4337 9.56486C20.0726 11.8726 19.308 12.5437 18.9282 12.3399C18.5483 12.1361 18.5764 10.8731 19.4337 9.56486ZM19.4337 9.56486C19.8233 8.91515 20.7466 7.83859 21.3232 8.72973M21.3232 8.72973C22.0438 9.84368 21.7846 11.0289 21.1637 10.9369C20.7257 10.8721 20.7968 9.19377 21.3232 8.72973ZM21.3232 8.72973C21.4771 8.36647 22.0728 7.62252 23.2245 7.55294" stroke="black" stroke-width="0.0502366" stroke-linecap="round" stroke-linejoin="round"/>
<path d="M26.2577 13.4798L25.3264 11.3605L17.5232 15.5576L17.8886 16.3892L26.2577 13.4798Z" fill="white"/>
<path d="M26.2576 13.4798L17.8885 16.3892L17.6582 15.865L25.7654 13.0467L26.2576 13.4798Z" fill="#E6E6E6"/>
<path d="M26.2577 13.4798L25.3264 11.3605L17.5232 15.5576L17.8886 16.3892L26.2577 13.4798Z" stroke="black" stroke-width="0.0502366" stroke-linecap="round" stroke-linejoin="round"/>
<path d="M36.2896 5.66086L26.1669 10.109C25.1734 10.5456 24.7218 11.705 25.1584 12.6985L25.1584 12.6985C25.595 13.6921 26.7544 14.1436 27.748 13.707L37.8707 9.25885C38.8642 8.82226 39.3158 7.6629 38.8792 6.66933C38.4426 5.67577 37.2832 5.22426 36.2896 5.66086Z" fill="#5DC973"/>
<path d="M27.748 13.707L37.8708 9.25888C38.8643 8.82232 39.3158 7.66296 38.8793 6.66938C38.6385 6.1214 38.1778 5.73835 37.6464 5.57814C37.2143 5.44793 36.7353 5.46511 36.2897 5.66088L34.9958 6.22951C33.5759 7.26027 33.7588 8.85422 34.445 9.51956C34.5009 9.57386 34.489 9.67242 34.4172 9.70307L26.7171 12.9882C26.2719 13.1782 25.7954 13.1921 25.3657 13.0609C25.8965 13.7953 26.8849 14.0864 27.748 13.707Z" fill="#47B85E"/>
<path d="M26.1669 10.109L36.2896 5.66086C37.2832 5.22426 38.4426 5.67577 38.8792 6.66933L38.8792 6.66934C39.3158 7.6629 38.8642 8.82226 37.8707 9.25885L27.748 13.707C26.7544 14.1436 25.595 13.6921 25.1584 12.6985L25.1584 12.6985C24.7218 11.705 25.1734 10.5456 26.1669 10.109Z" stroke="black" stroke-width="0.0502366" stroke-linecap="round" stroke-linejoin="round"/>
<path d="M36.2898 5.66081L35.5915 5.96766C34.5979 6.40425 34.1464 7.56362 34.583 8.55718L34.583 8.55718C35.0196 9.55074 36.179 10.0022 37.1725 9.56566L37.8708 9.25881C38.8644 8.82222 39.3159 7.66285 38.8793 6.66929L38.8793 6.66929C38.4427 5.67573 37.2833 5.22422 36.2898 5.66081Z" fill="black"/>
<path d="M32.5134 8.8406L29.7093 10.0728C29.4195 10.2001 29.2878 10.5383 29.4151 10.828L29.4151 10.828C29.5425 11.1178 29.8806 11.2495 30.1704 11.1222L32.9745 9.89C33.2643 9.76266 33.396 9.42452 33.2686 9.13474L33.2686 9.13473C33.1413 8.84495 32.8031 8.71326 32.5134 8.8406Z" fill="black"/>
<path d="M17.2767 17.1151C17.7977 17.1151 18.22 16.6928 18.22 16.1719C18.22 15.6509 17.7977 15.2286 17.2767 15.2286C16.7558 15.2286 16.3335 15.6509 16.3335 16.1719C16.3335 16.6928 16.7558 17.1151 17.2767 17.1151Z" fill="#5DC973"/>
<path d="M17.2767 17.1152C17.7977 17.1152 18.2199 16.6928 18.2199 16.1719C18.2199 15.7559 17.9506 15.4027 17.5768 15.2774C17.6291 15.3946 17.6581 15.5245 17.6581 15.6611C17.6581 16.1821 17.2359 16.6044 16.7149 16.6044C16.61 16.6044 16.509 16.5872 16.4148 16.5556C16.5618 16.8853 16.8924 17.1152 17.2767 17.1152Z" fill="#47B85E"/>
<path d="M17.2767 17.1151C17.7977 17.1151 18.22 16.6928 18.22 16.1719C18.22 15.6509 17.7977 15.2286 17.2767 15.2286C16.7558 15.2286 16.3335 15.6509 16.3335 16.1719C16.3335 16.6928 16.7558 17.1151 17.2767 17.1151Z" stroke="black" stroke-width="0.0502366" stroke-linecap="round" stroke-linejoin="round"/>
<path d="M38.3289 11.942C38.8587 11.8795 39.0479 11.2957 39.0763 11.0116C39.1396 11.6656 39.5384 11.9665 39.7299 12.0352C39.1941 12.1671 38.9799 12.7874 38.9397 13.0811C38.9663 12.4521 38.5435 12.0596 38.3289 11.942Z" fill="#B9FD4C" stroke="black" stroke-width="0.0502366" stroke-linecap="round" stroke-linejoin="round"/>
<path d="M7.39966 9.27187C8.04344 9.19596 8.27342 8.48652 8.30794 8.1413C8.38485 8.93609 8.86953 9.30171 9.10223 9.38515C8.45116 9.54541 8.19078 10.2993 8.14195 10.6562C8.17426 9.89179 7.66054 9.41479 7.39966 9.27187Z" fill="#5DC973" stroke="black" stroke-width="0.0502366" stroke-linecap="round" stroke-linejoin="round"/>
<path d="M11.6736 41.1616C12.3174 41.0857 12.5474 40.3762 12.5819 40.031C12.6588 40.8258 13.1435 41.1914 13.3762 41.2749C12.7251 41.4352 12.4648 42.1891 12.4159 42.5459C12.4482 41.7815 11.9345 41.3046 11.6736 41.1616Z" fill="#7BA9E5" stroke="black" stroke-width="0.0502366" stroke-linecap="round" stroke-linejoin="round"/>
<path d="M4.93066 26.6755C5.43107 26.6165 5.60981 26.0651 5.63664 25.7968C5.69637 26.4145 6.07304 26.6987 6.25395 26.7635C5.74791 26.8881 5.54556 27.474 5.50763 27.7514C5.5327 27.1573 5.13342 26.7866 4.93066 26.6755Z" fill="#7BA9E5" stroke="black" stroke-width="0.0502366" stroke-linecap="round" stroke-linejoin="round"/>
<path d="M39.7227 37.6633C40.3665 37.5874 40.5965 36.878 40.631 36.5328C40.7079 37.3276 41.1925 37.6932 41.4253 37.7766C40.7742 37.9369 40.5138 38.6908 40.465 39.0477C40.4973 38.2833 39.9835 37.8063 39.7227 37.6633Z" fill="#B9FD4C" stroke="black" stroke-width="0.0502366" stroke-linecap="round" stroke-linejoin="round"/>
<path d="M10.0141 39.402C9.98519 39.0324 9.75239 38.2002 9.05225 37.8284C8.17883 37.3645 7.08634 36.8244 8.3945 35.7465M8.3945 35.7465L8.40269 35.7397M8.3945 35.7465C7.81512 35.35 6.90393 34.2251 7.89419 32.8977M8.40269 35.7397C9.72361 34.6574 10.8975 35.1485 10.8789 35.545C10.8604 35.9415 9.55984 36.5148 8.40269 35.7397ZM7.89419 32.8977C9.13207 31.2385 10.7163 31.6201 10.8703 32.1706C11.0243 32.7212 9.46208 33.6866 7.89419 32.8977ZM7.89419 32.8977C6.9304 32.648 5.74497 30.4657 8.59871 28.5812" stroke="black" stroke-width="0.0502366" stroke-linecap="round" stroke-linejoin="round"/>
<path d="M16.6664 25.7025C17.1911 26.3178 17.7525 26.9702 18.289 27.5918C18.5618 27.9079 18.8285 28.2164 19.0807 28.5081C19.8664 29.4169 20.5101 30.1616 20.7541 30.459C21.2643 31.0807 21.7988 32.1435 22.0235 33.2328C22.2452 34.3074 22.1927 35.5653 21.3006 36.4C20.3843 37.2574 19.3496 37.4 18.349 37.1778C17.3809 36.9627 16.4323 36.4054 15.6068 35.8603C14.749 35.2938 13.7908 34.4594 13.0854 33.4996C12.3871 32.5497 11.8841 31.4032 12.0868 30.2427C12.2793 29.1402 12.9347 28.1157 13.8024 27.1405L14.5054 27.766C13.6842 28.6889 13.1621 29.5547 13.0137 30.4045C12.8755 31.1962 13.2093 32.0795 13.8435 32.9424C14.4706 33.7955 15.3407 34.557 16.1253 35.0751C16.9423 35.6146 17.7669 36.0846 18.5531 36.2592C19.3068 36.4267 20.0075 36.3214 20.6577 35.7129C21.1879 35.2169 21.3005 34.3853 21.102 33.423C20.9065 32.4755 20.4355 31.5541 20.0267 31.0558C19.7911 30.7687 19.1615 30.0404 18.3802 29.1366C18.1257 28.8422 17.8551 28.5291 17.5767 28.2066C17.0442 27.5896 16.4847 26.9396 15.9598 26.324C15.7888 26.1689 15.5204 25.9658 15.1789 25.7625C14.4446 25.3252 13.3723 24.8868 12.2039 24.9215C13.0156 24.5985 14.9033 23.5748 15.9598 22.0635C15.7135 22.9597 15.9548 24.0212 16.2552 24.8158C16.3937 25.1822 16.5447 25.4918 16.6664 25.7025Z" fill="#B9FD4C"/>
<path d="M16.9907 24.1979C18.8583 22.6455 20.4235 20.6725 20.9642 19.8915L21.7378 20.4271C21.1629 21.2575 19.5424 23.3005 17.5922 24.9215C17.2743 25.1857 16.9648 25.4457 16.6664 25.7024C16.5447 25.4918 16.3936 25.1821 16.2551 24.8158C16.4963 24.6105 16.742 24.4046 16.9907 24.1979Z" fill="#B9FD4C"/>
<path d="M15.9599 26.324C15.4193 26.8124 14.9281 27.2909 14.5055 27.766L13.8025 27.1405C14.2116 26.6808 14.6768 26.2223 15.1789 25.7625C15.5204 25.9658 15.7889 26.1689 15.9599 26.324Z" fill="#B9FD4C"/>
<path d="M16.6664 25.7025C17.1911 26.3179 17.7525 26.9702 18.289 27.5917C18.5618 27.9079 18.8286 28.2164 19.0807 28.5081C19.8663 29.4169 20.5101 30.1616 20.7541 30.459C21.2643 31.0808 21.7988 32.1435 22.0235 33.2329C22.2452 34.3074 22.1927 35.5653 21.3006 36.4C20.3843 37.2574 19.3495 37.4 18.349 37.1778C22.1926 36.8559 21.7589 33.8727 21.3006 32.4535C20.8423 31.0342 19.3557 29.4272 17.8306 27.766C16.6104 26.4371 15.8044 25.1347 15.5539 24.6497C15.2292 25.1611 14.7196 25.3717 14.5054 25.4131C13.8508 25.1208 13.0527 24.8964 12.2039 24.9215C13.0156 24.5986 14.9033 23.5748 15.9598 22.0636C15.7134 22.9597 15.9548 24.0211 16.2552 24.8159C16.315 24.9741 16.3772 25.1218 16.4383 25.2555C17.5615 24.342 20.1164 22.0439 21.351 20.1593L21.7379 20.4271C21.1629 21.2575 19.5425 23.3006 17.5923 24.9215C17.2744 25.1857 16.9649 25.4457 16.6664 25.7025Z" fill="#A8E82E"/>
<path d="M14.5054 27.766C13.6842 28.6889 13.1621 29.5547 13.0137 30.4045C12.8754 31.1962 13.2093 32.0795 13.8435 32.9424C14.4706 33.7955 15.3407 34.557 16.1253 35.0751C11.5928 32.7451 12.3602 30.5927 13.0853 28.9368C13.6654 27.6122 14.9252 26.3974 15.4827 25.9555C15.6818 26.0906 15.8434 26.2184 15.9598 26.3241C15.4192 26.8124 14.9281 27.291 14.5054 27.766Z" fill="#A8E82E"/>
<path d="M16.6664 25.7024C16.9649 25.4457 17.2744 25.1857 17.5923 24.9215C19.5425 23.3005 21.1629 21.2575 21.7378 20.4271L20.9642 19.8915C20.4236 20.6725 18.8584 22.6455 16.9908 24.1979C16.7421 24.4046 16.4963 24.6105 16.2552 24.8158M16.6664 25.7024C17.1911 26.3178 17.7525 26.9702 18.289 27.5917C18.5618 27.9078 18.8285 28.2164 19.0807 28.5081C19.8664 29.4169 20.5101 30.1616 20.7541 30.4589C21.2643 31.0807 21.7988 32.1434 22.0235 33.2328C22.2452 34.3074 22.1927 35.5652 21.3006 36.4C20.3843 37.2574 19.3496 37.4 18.349 37.1777C17.3809 36.9627 16.4323 36.4053 15.6068 35.8603C14.749 35.2938 13.7908 34.4593 13.0854 33.4996C12.3871 32.5496 11.8841 31.4032 12.0868 30.2426C12.2793 29.1401 12.9347 28.1157 13.8024 27.1405C14.2115 26.6807 14.6767 26.2222 15.1789 25.7624M16.6664 25.7024C16.5447 25.4918 16.3937 25.1821 16.2552 24.8158M16.2552 24.8158C15.9548 24.0211 15.7135 22.9596 15.9598 22.0635C14.9033 23.5747 13.0156 24.5985 12.2039 24.9215C13.3723 24.8868 14.4446 25.3252 15.1789 25.7624M15.1789 25.7624C15.5204 25.9658 15.7888 26.1689 15.9598 26.324M15.9598 26.324C15.4192 26.8124 14.9281 27.2909 14.5054 27.766C13.6842 28.6889 13.1621 29.5546 13.0137 30.4045C12.8755 31.1962 13.2093 32.0795 13.8435 32.9423C14.4706 33.7955 15.3407 34.5569 16.1253 35.0751C16.9423 35.6146 17.7669 36.0845 18.5531 36.2592C19.3068 36.4266 20.0074 36.3213 20.6577 35.7129C21.1879 35.2168 21.3005 34.3852 21.102 33.4229C20.9065 32.4755 20.4355 31.554 20.0267 31.0558C19.7911 30.7686 19.1615 30.0404 18.3802 29.1366C18.1257 28.8422 17.8551 28.5291 17.5767 28.2065C17.0442 27.5896 16.4847 26.9396 15.9598 26.324Z" stroke="black" stroke-width="0.0502366" stroke-linecap="round" stroke-linejoin="round"/>
<path d="M22.0069 20.7418C23.2046 20.7418 24.1756 19.7708 24.1756 18.573C24.1756 17.3753 23.2046 16.4043 22.0069 16.4043C20.8091 16.4043 19.8381 17.3753 19.8381 18.573C19.8381 19.7708 20.8091 20.7418 22.0069 20.7418Z" fill="#7BA9E5"/>
<path d="M22.0069 20.7418C23.2046 20.7418 24.1756 19.7708 24.1756 18.573C24.1756 17.734 23.6991 17.0062 23.002 16.6456C23.2945 17.0152 23.4692 17.4825 23.4692 17.9905C23.4692 19.1882 22.4982 20.1592 21.3005 20.1592C20.9418 20.1592 20.6034 20.0721 20.3054 19.9179C20.7026 20.4198 21.3171 20.7418 22.0069 20.7418Z" fill="#6298D3"/>
<path d="M22.0067 19.5163C22.5277 19.5163 22.95 19.094 22.95 18.573C22.95 18.0521 22.5277 17.6298 22.0067 17.6298C21.4858 17.6298 21.0635 18.0521 21.0635 18.573C21.0635 19.094 21.4858 19.5163 22.0067 19.5163Z" fill="black"/>
<path d="M22.0069 20.7418C23.2046 20.7418 24.1756 19.7708 24.1756 18.573C24.1756 17.3753 23.2046 16.4043 22.0069 16.4043C20.8091 16.4043 19.8381 17.3753 19.8381 18.573C19.8381 19.7708 20.8091 20.7418 22.0069 20.7418Z" stroke="black" stroke-width="0.0502366" stroke-linecap="round" stroke-linejoin="round"/>
<path fill-rule="evenodd" clip-rule="evenodd" d="M9.20882 14.1493C9.15467 14.1929 9.10177 14.2355 9.05007 14.2761L8.61377 13.7215C8.65928 13.6857 8.70917 13.6448 8.76337 13.6004C9.34446 13.1247 10.4247 12.2405 11.9307 12.8016C12.2622 12.9251 12.6265 13.2329 12.9776 13.6161C13.3391 14.0106 13.722 14.5246 14.0859 15.1144C14.8123 16.2916 15.4814 17.8009 15.745 19.3116L15.0498 19.4329C14.8054 18.0323 14.1778 16.6071 13.4854 15.485C13.1398 14.925 12.7829 14.4482 12.4573 14.0928C12.1212 13.726 11.8511 13.525 11.6843 13.4629C10.5751 13.0496 9.81131 13.6644 9.20882 14.1493Z" fill="black"/>
<path fill-rule="evenodd" clip-rule="evenodd" d="M5.56508 16.8271C5.61869 16.7827 5.67093 16.7395 5.72117 16.697L5.26517 16.1583C5.22101 16.1957 5.17098 16.2364 5.11662 16.2807C4.53413 16.7546 3.45128 17.6356 3.6991 19.2236C3.75365 19.5731 3.98223 19.9917 4.28727 20.4124C4.6013 20.8456 5.02821 21.3239 5.53303 21.7986C6.54073 22.7462 7.88531 23.7042 9.31258 24.2653L9.57075 23.6085C8.24747 23.0883 6.97708 22.1878 6.01646 21.2845C5.53715 20.8338 5.14154 20.3885 4.85861 19.9982C4.56668 19.5955 4.42386 19.2906 4.39638 19.1147C4.21387 17.9451 4.96923 17.3201 5.56508 16.8271Z" fill="black"/>
<path d="M8.93502 13.1619L9.66044 14.0646C9.77819 14.2112 9.72248 14.4297 9.54897 14.502L8.47837 14.9481C8.3678 14.9942 8.24015 14.9654 8.16002 14.8764L7.84002 14.5208C7.75361 14.4248 7.74341 14.2823 7.8153 14.1749L8.48043 13.1817C8.58648 13.0233 8.81566 13.0134 8.93502 13.1619Z" fill="#7BA9E5"/>
<path d="M8.93507 13.1619L9.66049 14.0647C9.77824 14.2112 9.72253 14.4297 9.54901 14.502L8.47847 14.9481C8.36785 14.9942 8.2402 14.9655 8.16007 14.8764L7.99585 14.6939L8.93492 14.3026C9.10844 14.2303 9.16415 14.0118 9.04635 13.8652L8.48822 13.1707C8.59733 13.023 8.81857 13.0169 8.93507 13.1619Z" fill="#6298D3"/>
<path d="M5.43168 17.255L4.68134 16.3729C4.55957 16.2298 4.6091 16.0097 4.78056 15.9326L5.83824 15.4568C5.9475 15.4076 6.07591 15.4329 6.1585 15.5196L6.4883 15.866C6.57737 15.9597 6.59154 16.1018 6.52266 16.2112L5.88556 17.2226C5.78398 17.3838 5.55516 17.4002 5.43168 17.255Z" fill="#7BA9E5"/>
<path d="M6.52259 16.2112L5.88549 17.2226C5.78391 17.3838 5.55508 17.4002 5.4316 17.255L5.37549 17.189C5.38056 17.1823 5.38544 17.1753 5.39001 17.168L6.02716 16.1566C6.09603 16.0472 6.08186 15.9051 5.99279 15.8115L5.71001 15.5144L5.83817 15.4568C5.94743 15.4076 6.07584 15.4329 6.15842 15.5196L6.48823 15.866C6.5773 15.9597 6.59146 16.1018 6.52259 16.2112Z" fill="#6298D3"/>
<path d="M8.93502 13.1619L9.66044 14.0646C9.77819 14.2112 9.72248 14.4297 9.54897 14.502L8.47837 14.9481C8.3678 14.9942 8.24015 14.9654 8.16002 14.8764L7.84002 14.5208C7.75361 14.4248 7.74341 14.2823 7.8153 14.1749L8.48043 13.1817C8.58648 13.0233 8.81566 13.0134 8.93502 13.1619Z" stroke="black" stroke-width="0.0502366" stroke-linecap="round" stroke-linejoin="round"/>
<path d="M5.43168 17.255L4.68134 16.3729C4.55957 16.2298 4.6091 16.0097 4.78056 15.9326L5.83824 15.4568C5.9475 15.4076 6.07591 15.4329 6.1585 15.5196L6.4883 15.866C6.57737 15.9597 6.59154 16.1018 6.52266 16.2112L5.88556 17.2226C5.78398 17.3838 5.55516 17.4002 5.43168 17.255Z" stroke="black" stroke-width="0.0502366" stroke-linecap="round" stroke-linejoin="round"/>
<path d="M14.7447 21.1671C14.8035 20.5305 14.7417 19.9064 14.6474 19.4519C14.5999 19.223 14.7197 18.9825 14.9414 18.908L15.6996 18.6535C15.9213 18.5791 16.162 18.6985 16.2168 18.9259C16.3709 19.5661 16.4661 20.4353 16.3844 21.3186C16.2845 22.4 15.9021 23.6634 14.8487 24.4867C13.627 25.4416 12.3016 25.5712 11.1615 25.3936C10.2669 25.2543 9.45928 24.9216 8.87041 24.6492C8.65922 24.5515 8.57075 24.2992 8.67012 24.0888L9.01173 23.3656C9.1121 23.1531 9.36569 23.064 9.57915 23.1623C10.1127 23.4079 10.7428 23.6619 11.415 23.7666C12.2302 23.8936 13.0606 23.7944 13.8346 23.1893C14.3779 22.7647 14.6645 22.0348 14.7447 21.1671Z" fill="#B9FD4C"/>
<path d="M16.2168 18.9259C16.3709 19.5661 16.4661 20.4353 16.3844 21.3186C16.2845 22.4 15.9021 23.6634 14.8487 24.4867C13.627 25.4416 12.3016 25.5712 11.1615 25.3936C10.2669 25.2543 9.45928 24.9216 8.87041 24.6492C8.677 24.5597 8.58652 24.3407 8.64897 24.1428C9.20323 24.3928 9.93015 24.6769 10.7289 24.8013C11.8289 24.9727 13.1078 24.8476 14.2866 23.9263C15.3031 23.1319 15.672 21.9128 15.7685 20.8694C15.8424 20.0689 15.766 19.2805 15.6332 18.6758L15.6996 18.6535C15.9213 18.5791 16.162 18.6985 16.2168 18.9259Z" fill="#A8E82E"/>
<path d="M14.7447 21.1671C14.8035 20.5305 14.7417 19.9064 14.6474 19.4519C14.5999 19.223 14.7197 18.9825 14.9414 18.908L15.6996 18.6535C15.9213 18.5791 16.162 18.6985 16.2168 18.9259C16.3709 19.5661 16.4661 20.4353 16.3844 21.3186C16.2845 22.4 15.9021 23.6634 14.8487 24.4867C13.627 25.4416 12.3016 25.5712 11.1615 25.3936C10.2669 25.2543 9.45928 24.9216 8.87041 24.6492C8.65922 24.5515 8.57075 24.2992 8.67012 24.0888L9.01173 23.3656C9.1121 23.1531 9.36569 23.064 9.57915 23.1623C10.1127 23.4079 10.7428 23.6619 11.415 23.7666C12.2302 23.8936 13.0606 23.7944 13.8346 23.1893C14.3779 22.7647 14.6645 22.0348 14.7447 21.1671Z" stroke="black" stroke-width="0.0502366" stroke-linecap="round" stroke-linejoin="round"/>
</svg>
