<svg width="32" height="32" viewBox="0 0 32 32" fill="#DAB417" xmlns="http://www.w3.org/2000/svg">
<path d="M16 2.6665C8.66666 2.6665 2.66666 8.6665 2.66666 15.9998C2.66666 23.3332 8.66666 29.3332 16 29.3332C23.3333 29.3332 29.3333 23.3332 29.3333 15.9998C29.3333 8.6665 23.3333 2.6665 16 2.6665ZM16 22.6665C15.2 22.6665 14.6667 22.1332 14.6667 21.3332C14.6667 20.5332 15.2 19.9998 16 19.9998C16.8 19.9998 17.3333 20.5332 17.3333 21.3332C17.3333 22.1332 16.8 22.6665 16 22.6665ZM17.3333 15.9998C17.3333 16.7998 16.8 17.3332 16 17.3332C15.2 17.3332 14.6667 16.7998 14.6667 15.9998V10.6665C14.6667 9.8665 15.2 9.33317 16 9.33317C16.8 9.33317 17.3333 9.8665 17.3333 10.6665V15.9998Z"/>
</svg>
