<svg width="32" height="32" viewBox="0 0 32 32" fill="#0F7B6C" xmlns="http://www.w3.org/2000/svg">
<path d="M16 2.66675C8.66666 2.66675 2.66666 8.66675 2.66666 16.0001C2.66666 23.3334 8.66666 29.3334 16 29.3334C23.3333 29.3334 29.3333 23.3334 29.3333 16.0001C29.3333 8.66675 23.3333 2.66675 16 2.66675ZM21.6 13.7334L15.2 20.1334C14.6667 20.6667 13.8667 20.6667 13.3333 20.1334L10.4 17.2001C9.86666 16.6667 9.86666 15.8667 10.4 15.3334C10.9333 14.8001 11.7333 14.8001 12.2667 15.3334L14.2667 17.3334L19.7333 11.8667C20.2667 11.3334 21.0667 11.3334 21.6 11.8667C22.1333 12.4001 22.1333 13.2001 21.6 13.7334Z"/>
</svg>
