<svg width="32" height="32" viewBox="0 0 32 32" fill="#BA1A1A" xmlns="http://www.w3.org/2000/svg">
<path d="M28.9333 10.1332L21.8667 3.0665C21.6 2.79984 21.3333 2.6665 20.9333 2.6665H11.0667C10.6667 2.6665 10.4 2.79984 10.1333 3.0665L3.06666 10.1332C2.79999 10.3998 2.66666 10.6665 2.66666 11.0665V21.0665C2.66666 21.4665 2.79999 21.7332 3.06666 21.9998L10.1333 29.0665C10.4 29.1998 10.6667 29.3332 11.0667 29.3332H21.0667C21.4667 29.3332 21.7333 29.1998 22 28.9332L29.0667 21.8665C29.3333 21.5998 29.4667 21.3332 29.4667 20.9332V11.0665C29.3333 10.6665 29.2 10.3998 28.9333 10.1332ZM16 22.6665C15.2 22.6665 14.6667 22.1332 14.6667 21.3332C14.6667 20.5332 15.2 19.9998 16 19.9998C16.8 19.9998 17.3333 20.5332 17.3333 21.3332C17.3333 22.1332 16.8 22.6665 16 22.6665ZM17.3333 15.9998C17.3333 16.7998 16.8 17.3332 16 17.3332C15.2 17.3332 14.6667 16.7998 14.6667 15.9998V10.6665C14.6667 9.8665 15.2 9.33317 16 9.33317C16.8 9.33317 17.3333 9.8665 17.3333 10.6665V15.9998Z"/>
</svg>
