<svg width="146" height="48" viewBox="0 0 146 48" fill="none" xmlns="http://www.w3.org/2000/svg">
<path d="M140.421 47.25H140.42H5.58266H5.58175C4.72893 47.251 3.88204 46.8571 3.23692 46.1047C2.58878 45.3488 2.20837 44.3011 2.20703 43.188V4.81826C2.20837 3.70448 2.5887 2.65596 3.23691 1.899C3.88206 1.1456 4.7292 0.750329 5.58266 0.75C5.58274 0.75 5.58282 0.75 5.58289 0.75L140.419 0.75C140.843 0.75 141.268 0.847638 141.669 1.04176L141.996 0.366761L141.669 1.04177C142.07 1.23615 142.443 1.52508 142.762 1.89865C143.082 2.2724 143.341 2.72215 143.518 3.22459C143.696 3.72703 143.789 4.26865 143.789 4.81768L143.79 43.1884C143.79 43.7371 143.697 44.2783 143.519 44.7802C143.341 45.2822 143.083 45.7315 142.763 46.1047C142.444 46.4777 142.071 46.766 141.67 46.9599C141.269 47.1534 140.845 47.2505 140.421 47.25Z" fill="#FCFCFF" stroke="#1A1C1E" stroke-width="1.5"/>
<path d="M30.8912 23.2145C30.86 19.7518 33.7272 18.0672 33.8584 17.9887C32.2345 15.6219 29.7177 15.2985 28.8332 15.2727C26.7194 15.0503 24.6689 16.5373 23.5921 16.5373C22.4938 16.5373 20.8356 15.2942 19.0484 15.3307C16.7486 15.3662 14.5972 16.6973 13.4172 18.7644C10.982 22.9792 12.7982 29.173 15.1313 32.5799C16.2984 34.2495 17.6621 36.1114 19.4471 36.0458C21.1934 35.9749 21.8458 34.9338 23.9532 34.9338C26.0413 34.9338 26.6538 36.0458 28.4743 36.0039C30.3485 35.9749 31.5285 34.3279 32.6547 32.6443C34.0034 30.733 34.5451 28.8486 34.5666 28.7519C34.5236 28.7368 30.9277 27.3638 30.8912 23.2145ZM27.4523 13.0316C28.3915 11.8573 29.0342 10.2597 28.8558 8.63843C27.4963 8.69859 25.7962 9.57851 24.8172 10.727C23.951 11.7391 23.1773 13.3979 23.3772 14.9579C24.9043 15.0718 26.4722 14.1876 27.4523 13.0316Z" fill="#0A0A0A"/>
<path d="M58.1725 36.8524H55.7319L54.395 32.6527H49.7482L48.4747 36.8524H46.0986L50.7036 22.5546H53.5471L58.1725 36.8524ZM53.992 30.8907L52.783 27.1572C52.6552 26.7758 52.4144 25.8777 52.0619 24.4638H52.019C51.8771 25.0719 51.6503 25.9701 51.3398 27.1572L50.1512 30.8907H53.992ZM69.9916 31.5708C69.9916 33.3242 69.5155 34.7101 68.5623 35.7276C67.709 36.6333 66.6483 37.0856 65.3835 37.0856C64.0176 37.0856 63.0353 36.5989 62.4389 35.6234V41.0328H60.1477V29.9313C60.1477 28.8301 60.1187 27.7009 60.0628 26.5427H62.0778L62.2057 28.1768H62.2487C63.0128 26.9456 64.1723 26.33 65.7284 26.33C66.945 26.33 67.9605 26.8102 68.773 27.7718C69.5843 28.7355 69.9916 30.0011 69.9916 31.5708ZM67.6575 31.6546C67.6575 30.6511 67.4318 29.8239 66.9783 29.1717C66.4828 28.4938 65.8176 28.1543 64.9837 28.1543C64.4184 28.1543 63.9047 28.3434 63.4458 28.7162C62.9859 29.0922 62.685 29.5832 62.5442 30.1913C62.4814 30.4187 62.4456 30.6528 62.4378 30.8886V32.6086C62.4378 33.3575 62.6678 33.9903 63.1278 34.5081C63.5877 35.0238 64.1852 35.2828 64.9203 35.2828C65.7832 35.2828 66.4549 34.9486 66.9353 34.2857C67.4167 33.6207 67.6575 32.744 67.6575 31.6546ZM81.8527 31.5708C81.8527 33.3242 81.3766 34.7101 80.4234 35.7276C79.569 36.6333 78.5094 37.0856 77.2435 37.0856C75.8776 37.0856 74.8953 36.5989 74.2989 35.6234V41.0328H72.0077V29.9313C72.0077 28.8301 71.9787 27.7009 71.9228 26.5427H73.9378L74.0657 28.1768H74.1087C74.8717 26.9456 76.0312 26.33 77.5884 26.33C78.8039 26.33 79.8194 26.8102 80.634 27.7718C81.4443 28.7355 81.8527 30.0011 81.8527 31.5708ZM79.5174 31.6546C79.5174 30.6511 79.2907 29.8239 78.8372 29.1717C78.3418 28.4938 77.6787 28.1543 76.8448 28.1543C76.2795 28.1543 75.7658 28.3434 75.3048 28.7162C74.8448 29.0922 74.545 29.5832 74.4042 30.1913C74.3343 30.4749 74.2967 30.7059 74.2967 30.8886V32.6086C74.2967 33.3575 74.5278 33.9903 74.9856 34.5081C75.4455 35.0228 76.0431 35.2828 76.7803 35.2828C77.6443 35.2828 78.316 34.9486 78.7953 34.2857C79.2767 33.6207 79.5174 32.744 79.5174 31.6546ZM95.114 32.8418C95.114 34.0591 94.6885 35.0486 93.8427 35.8124C92.912 36.6462 91.6128 37.0641 89.9471 37.0641C88.4081 37.0641 87.1744 36.7676 86.2438 36.1734L86.7736 34.2643C87.7784 34.8595 88.8821 35.156 90.0835 35.156C90.9476 35.156 91.6192 34.9605 92.0985 34.5726C92.5789 34.1837 92.8218 33.6637 92.8218 33.0148C92.8218 32.4335 92.6208 31.9468 92.2264 31.5504C91.8299 31.155 91.1743 30.7865 90.2533 30.4481C87.7494 29.5144 86.4963 28.1489 86.4963 26.3525C86.4963 25.1793 86.9391 24.2188 87.8224 23.4678C88.7058 22.7179 89.8772 22.343 91.3344 22.343C92.6359 22.343 93.7202 22.5697 94.581 23.022L94.0061 24.8892C93.1958 24.4509 92.2812 24.2317 91.2581 24.2317C90.45 24.2317 89.8159 24.4305 89.3624 24.8258C88.9809 25.1793 88.7875 25.6101 88.7875 26.1215C88.7875 26.6856 89.0078 27.154 89.4463 27.5215C89.8267 27.8599 90.5209 28.2284 91.5247 28.6238C92.7562 29.1201 93.6611 29.6982 94.2403 30.3621C94.8239 31.0261 95.114 31.8544 95.114 32.8418ZM102.709 28.2617H100.183V33.2672C100.183 34.5404 100.628 35.1753 101.52 35.1753C101.93 35.1753 102.269 35.141 102.538 35.069L102.601 36.8084C102.15 36.9771 101.556 37.0619 100.819 37.0619C99.9146 37.0619 99.2074 36.7858 98.697 36.2336C98.1886 35.6814 97.9329 34.7563 97.9329 33.4542V28.2574H96.4283V26.5384H97.9329V24.6507L100.183 23.9717V26.5384H102.709V28.2617ZM114.081 31.6127C114.081 33.1974 113.627 34.4985 112.722 35.5159C111.776 36.5634 110.516 37.0856 108.946 37.0856C107.431 37.0856 106.226 36.5838 105.328 35.5814C104.429 34.5769 103.98 33.3113 103.98 31.7846C103.98 30.187 104.444 28.8784 105.37 27.861C106.297 26.8425 107.546 26.3332 109.116 26.3332C110.629 26.3332 111.844 26.836 112.764 27.8395C113.643 28.8129 114.081 30.0699 114.081 31.6127ZM111.706 31.6653C111.706 30.721 111.502 29.9109 111.092 29.2329C110.612 28.4143 109.924 28.0049 109.033 28.0049C108.115 28.0049 107.411 28.4143 106.932 29.2329C106.522 29.9109 106.317 30.7349 106.317 31.7083C106.317 32.6538 106.522 33.466 106.932 34.1418C107.428 34.9605 108.119 35.3698 109.014 35.3698C109.89 35.3698 110.576 34.9519 111.073 34.1214C111.494 33.4273 111.706 32.6119 111.706 31.6653ZM121.531 28.5572C121.293 28.5142 121.051 28.4929 120.809 28.4938C120.003 28.4938 119.38 28.7967 118.941 29.407C118.561 29.9442 118.37 30.6232 118.37 31.4429V36.8524H116.079V29.7895C116.081 28.7072 116.058 27.625 116.012 26.5438H118.008L118.091 28.5163H118.155C118.398 27.8384 118.778 27.2915 119.3 26.8822C119.778 26.5245 120.359 26.3308 120.956 26.33C121.168 26.33 121.359 26.345 121.529 26.3719L121.531 28.5572ZM131.778 31.2098C131.784 31.558 131.756 31.906 131.695 32.2487H124.821C124.847 33.2672 125.18 34.0472 125.818 34.5844C126.397 35.0636 127.147 35.3043 128.066 35.3043C129.084 35.3043 130.013 35.1431 130.848 34.8176L131.207 36.4066C130.231 36.832 129.079 37.0437 127.749 37.0437C126.15 37.0437 124.895 36.5731 123.982 35.6341C123.07 34.694 122.614 33.4305 122.614 31.848C122.614 30.2944 123.038 28.9998 123.888 27.9673C124.778 26.865 125.981 26.3139 127.494 26.3139C128.98 26.3139 130.105 26.865 130.869 27.9673C131.474 28.8408 131.778 29.9238 131.778 31.2098ZM129.594 30.6157C129.61 29.9356 129.459 29.3501 129.149 28.8548C128.752 28.2166 128.142 27.8986 127.324 27.8986C126.575 27.8986 125.964 28.2091 125.5 28.8322C125.119 29.3275 124.892 29.9227 124.822 30.6135L129.594 30.6157Z" fill="#0A0A0A"/>
<path d="M49.0859 17.5007C48.4487 17.5007 47.8974 17.4696 47.4385 17.4169V10.5044C48.0803 10.4053 48.7288 10.3564 49.3782 10.3583C52.0058 10.3583 53.2159 11.6507 53.2159 13.7576C53.2159 16.1878 51.7866 17.5007 49.0859 17.5007ZM49.4707 11.2446C49.116 11.2446 48.814 11.2661 48.5636 11.3177V16.5725C48.6991 16.594 48.9591 16.6036 49.3245 16.6036C51.0461 16.6036 52.0262 15.6238 52.0262 13.7888C52.0262 12.1525 51.1396 11.2446 49.4707 11.2446ZM56.9869 17.5534C55.506 17.5534 54.5463 16.4478 54.5463 14.9469C54.5463 13.3826 55.5264 12.2674 57.0707 12.2674C58.5301 12.2674 59.5112 13.3203 59.5112 14.8642C59.5112 16.4478 58.5 17.5534 56.9869 17.5534ZM57.0298 13.0904C56.2163 13.0904 55.6951 13.8511 55.6951 14.9147C55.6951 15.9579 56.2271 16.7186 57.0191 16.7186C57.8111 16.7186 58.3431 15.9053 58.3431 14.8932C58.3431 13.8618 57.8219 13.0904 57.0298 13.0904ZM67.9559 12.3716L66.3708 17.4384H65.3381L64.6814 15.2381C64.5182 14.6999 64.3822 14.1538 64.2742 13.6018H64.2527C64.1699 14.154 64.013 14.7073 63.8464 15.2381L63.1479 17.4384H62.1044L60.6128 12.3716H61.7702L62.3441 14.7804C62.4795 15.3541 62.5934 15.8956 62.6879 16.407H62.7094C62.7922 15.9805 62.9276 15.4476 63.1264 14.7911L63.8464 12.3727H64.7642L65.4531 14.7396C65.6196 15.3133 65.755 15.8763 65.8604 16.4081H65.8904C65.9635 15.887 66.0785 15.3337 66.2343 14.7396L66.8501 12.3727L67.9559 12.3716ZM73.7914 17.4384H72.6651V14.529C72.6651 13.633 72.3212 13.1839 71.6431 13.1839C70.9757 13.1839 70.5169 13.7576 70.5169 14.4248V17.4384H69.3906V13.8199C69.3906 13.3719 69.3799 12.8916 69.3487 12.3706H70.3395L70.3922 13.1527H70.4234C70.7264 12.6112 71.3411 12.2674 72.03 12.2674C73.0939 12.2674 73.7924 13.0807 73.7924 14.4044L73.7914 17.4384ZM76.8971 17.4384H75.7698V10.0467H76.8971V17.4384ZM81.0034 17.5534C79.5236 17.5534 78.5629 16.4478 78.5629 14.9469C78.5629 13.3826 79.543 12.2674 81.0862 12.2674C82.5466 12.2674 83.5267 13.3203 83.5267 14.8642C83.5278 16.4478 82.5155 17.5534 81.0034 17.5534ZM81.0453 13.0904C80.2318 13.0904 79.7106 13.8511 79.7106 14.9147C79.7106 15.9579 80.2436 16.7186 81.0335 16.7186C81.8266 16.7186 82.3575 15.9053 82.3575 14.8932C82.3586 13.8618 81.8384 13.0904 81.0453 13.0904ZM87.9673 17.4384L87.8856 16.855H87.8555C87.5116 17.3245 87.0097 17.5534 86.3735 17.5534C85.4654 17.5534 84.8206 16.9173 84.8206 16.0621C84.8206 14.8116 85.905 14.1648 87.7824 14.1648V14.0713C87.7824 13.4041 87.4288 13.07 86.7303 13.07C86.2306 13.07 85.7921 13.1957 85.4063 13.446L85.1774 12.7058C85.646 12.4135 86.2306 12.2674 86.9173 12.2674C88.2413 12.2674 88.9097 12.9658 88.9097 14.3635V16.2297C88.9097 16.7411 88.9323 17.1376 88.9828 17.4395L87.9673 17.4384ZM87.8125 14.9147C86.5616 14.9147 85.934 15.2177 85.934 15.9364C85.934 16.4683 86.2575 16.7283 86.7067 16.7283C87.2795 16.7283 87.8125 16.291 87.8125 15.6968V14.9147ZM94.3787 17.4384L94.326 16.6251H94.2949C93.9714 17.2397 93.4276 17.5534 92.6678 17.5534C91.4459 17.5534 90.5411 16.479 90.5411 14.9673C90.5411 13.3826 91.4792 12.2664 92.7602 12.2664C93.4384 12.2664 93.9187 12.4952 94.1896 12.955H94.2121V10.0467H95.3394V16.0729C95.3394 16.5628 95.3513 17.0216 95.3814 17.4384H94.3787ZM94.2121 14.457C94.2121 13.7479 93.7425 13.1431 93.0257 13.1431C92.1907 13.1431 91.6802 13.8833 91.6802 14.9254C91.6802 15.9472 92.21 16.6466 93.0031 16.6466C93.7113 16.6466 94.2121 16.031 94.2121 15.3015V14.457ZM102.487 17.5534C101.007 17.5534 100.048 16.4478 100.048 14.9469C100.048 13.3826 101.028 12.2674 102.571 12.2674C104.031 12.2674 105.011 13.3203 105.011 14.8642C105.012 16.4478 104.001 17.5534 102.487 17.5534ZM102.529 13.0904C101.716 13.0904 101.195 13.8511 101.195 14.9147C101.195 15.9579 101.727 16.7186 102.518 16.7186C103.311 16.7186 103.842 15.9053 103.842 14.8932C103.844 13.8618 103.323 13.0904 102.529 13.0904ZM111.068 17.4384H109.941V14.529C109.941 13.633 109.597 13.1839 108.919 13.1839C108.252 13.1839 107.794 13.7576 107.794 14.4248V17.4384H106.666V13.8199C106.666 13.3719 106.656 12.8916 106.624 12.3706H107.615L107.668 13.1527H107.699C108.001 12.6112 108.617 12.2664 109.305 12.2664C110.369 12.2664 111.068 13.0797 111.068 14.4033V17.4384ZM118.646 13.2161H117.407V15.6764C117.407 16.3028 117.624 16.6154 118.062 16.6154C118.261 16.6154 118.428 16.594 118.562 16.5628L118.593 17.418C118.375 17.5018 118.083 17.5437 117.719 17.5437C116.832 17.5437 116.301 17.0538 116.301 15.771V13.2161H115.561V12.3716H116.301V11.4434L117.407 11.1093V12.3706H118.646V13.2161ZM124.608 17.4384H123.483V14.5505C123.483 13.6437 123.14 13.185 122.461 13.185C121.877 13.185 121.333 13.5814 121.333 14.384V17.4384H120.208V10.0467H121.333V13.0904H121.356C121.711 12.5382 122.224 12.2664 122.88 12.2664C123.952 12.2664 124.608 13.1001 124.608 14.4248V17.4384ZM130.716 15.1758H127.336C127.358 16.1352 127.993 16.6767 128.933 16.6767C129.433 16.6767 129.893 16.5929 130.299 16.4371L130.474 17.2192C129.995 17.4277 129.431 17.5319 128.774 17.5319C127.189 17.5319 126.251 16.5306 126.251 14.9781C126.251 13.4245 127.212 12.2567 128.648 12.2567C129.943 12.2567 130.755 13.2161 130.755 14.6654C130.762 14.8365 130.749 15.0078 130.716 15.1758ZM129.684 14.3732C129.684 13.5911 129.289 13.0388 128.569 13.0388C127.922 13.0388 127.411 13.6018 127.338 14.3732H129.684Z" fill="#0A0A0A"/>
</svg>
