<svg width="146" height="48" viewBox="0 0 146 48" fill="none" xmlns="http://www.w3.org/2000/svg">
<path d="M140.13 47.25H5.87037C3.35321 47.25 1.25 45.0261 1.25 42V6C1.25 2.97386 3.3532 0.75 5.87037 0.75H140.13C142.647 0.75 144.75 2.97386 144.75 6V42C144.75 44.9164 142.638 47.25 140.13 47.25Z" fill="#FCFCFF" stroke="#1A1C1E" stroke-width="1.5"/>
<path d="M51.4112 14.1084C51.4112 14.9792 51.1964 15.7412 50.6594 16.2854C50.0149 16.9385 49.2631 17.265 48.2964 17.265C47.3298 17.265 46.5779 16.9385 45.9335 16.2854C45.289 15.6323 44.9668 14.8704 44.9668 13.8907C44.9668 12.9111 45.289 12.1491 45.9335 11.4961C46.5779 10.843 47.3298 10.5164 48.2964 10.5164C48.7261 10.5164 49.1557 10.6253 49.5853 10.843C50.0149 11.0607 50.3372 11.2784 50.552 11.6049L50.0149 12.1491C49.5853 11.6049 49.0483 11.3872 48.2964 11.3872C47.652 11.3872 47.0075 11.6049 46.5779 12.1491C46.0409 12.5845 45.8261 13.2376 45.8261 13.9996C45.8261 14.7615 46.0409 15.4146 46.5779 15.85C47.1149 16.2854 47.652 16.6119 48.2964 16.6119C49.0483 16.6119 49.5853 16.3942 50.1224 15.85C50.4446 15.5235 50.6594 15.0881 50.6594 14.5438H48.2964V13.7819H51.4112C51.4112 13.7819 51.4112 13.9996 51.4112 14.1084Z" fill="#1A1C1E"/>
<path d="M56.352 11.3877H53.452V13.4559H56.1372V14.2178H53.452V16.2859H56.352V17.1567H52.5928V10.6258H56.352V11.3877Z" fill="#1A1C1E"/>
<path d="M59.8961 17.1567H59.0369V11.3877H57.2109V10.6258H61.722V11.3877H59.8961V17.1567Z" fill="#1A1C1E"/>
<path d="M64.8369 17.1567V10.6258H65.6962V17.1567H64.8369Z" fill="#1A1C1E"/>
<path d="M69.3483 17.1567H68.489V11.3877H66.6631V10.6258H71.0668V11.3877H69.2409V17.1567H69.3483Z" fill="#1A1C1E"/>
<path d="M79.552 16.2854C78.9075 16.9385 78.1557 17.265 77.189 17.265C76.2223 17.265 75.4705 16.9385 74.826 16.2854C74.1816 15.6323 73.8594 14.8704 73.8594 13.8907C73.8594 12.9111 74.1816 12.1491 74.826 11.4961C75.4705 10.843 76.2223 10.5164 77.189 10.5164C78.1557 10.5164 78.9075 10.843 79.552 11.4961C80.1964 12.1491 80.5186 12.9111 80.5186 13.8907C80.5186 14.8704 80.1964 15.6323 79.552 16.2854ZM75.4705 15.7412C75.9001 16.1766 76.5446 16.5031 77.189 16.5031C77.8334 16.5031 78.4779 16.2854 78.9075 15.7412C79.3372 15.3058 79.6594 14.6527 79.6594 13.8907C79.6594 13.1288 79.4446 12.4757 78.9075 12.0403C78.4779 11.6049 77.8334 11.2784 77.189 11.2784C76.5446 11.2784 75.9001 11.4961 75.4705 12.0403C75.0409 12.4757 74.7186 13.1288 74.7186 13.8907C74.7186 14.6527 74.9334 15.3058 75.4705 15.7412Z" fill="#1A1C1E"/>
<path d="M81.7002 17.1567V10.6258H82.6669L85.7817 15.7417V14.4355V10.6258H86.6409V17.1567H85.7817L82.4521 11.8231V13.1293V17.1567H81.7002Z" fill="#1A1C1E"/>
<path d="M73.6445 26.7344C71.0668 26.7344 69.026 28.6936 69.026 31.4149C69.026 34.0272 71.0668 36.0954 73.6445 36.0954C76.2223 36.0954 78.2631 34.1361 78.2631 31.4149C78.2631 28.5848 76.2223 26.7344 73.6445 26.7344ZM73.6445 34.1361C72.2482 34.1361 71.0668 32.9387 71.0668 31.306C71.0668 29.6733 72.2482 28.4759 73.6445 28.4759C75.0408 28.4759 76.2223 29.5644 76.2223 31.306C76.2223 32.9387 75.0408 34.1361 73.6445 34.1361ZM63.6556 26.7344C61.0779 26.7344 59.0371 28.6936 59.0371 31.4149C59.0371 34.0272 61.0779 36.0954 63.6556 36.0954C66.2334 36.0954 68.2742 34.1361 68.2742 31.4149C68.2742 28.5848 66.2334 26.7344 63.6556 26.7344ZM63.6556 34.1361C62.2594 34.1361 61.0779 32.9387 61.0779 31.306C61.0779 29.6733 62.2594 28.4759 63.6556 28.4759C65.0519 28.4759 66.2334 29.5644 66.2334 31.306C66.2334 32.9387 65.0519 34.1361 63.6556 34.1361ZM51.7334 28.1494V30.1087H56.3519C56.2445 31.1972 55.8149 32.0679 55.2779 32.6122C54.6334 33.2653 53.5593 34.0272 51.7334 34.0272C48.8334 34.0272 46.6853 31.7414 46.6853 28.8025C46.6853 25.8636 48.9408 23.5777 51.7334 23.5777C53.2371 23.5777 54.4186 24.2308 55.2779 24.9928L56.6742 23.5777C55.4927 22.4893 53.989 21.6185 51.8408 21.6185C47.9742 21.6185 44.6445 24.8839 44.6445 28.8025C44.6445 32.721 47.9742 35.9865 51.8408 35.9865C53.989 35.9865 55.4927 35.3334 56.7816 33.9184C58.0705 32.6122 58.5001 30.7618 58.5001 29.3467C58.5001 28.9113 58.5001 28.4759 58.3927 28.1494H51.7334ZM100.496 29.6733C100.067 28.5848 98.9927 26.7344 96.6297 26.7344C94.2668 26.7344 92.3334 28.5848 92.3334 31.4149C92.3334 34.0272 94.2668 36.0954 96.8445 36.0954C98.8853 36.0954 100.174 34.7892 100.604 34.0272L99.1001 32.9387C98.5631 33.7007 97.9186 34.2449 96.8445 34.2449C95.7705 34.2449 95.126 33.8095 94.589 32.8299L100.711 30.2175L100.496 29.6733ZM94.2668 31.1972C94.2668 29.4556 95.6631 28.4759 96.6297 28.4759C97.3816 28.4759 98.1334 28.9113 98.3482 29.4556L94.2668 31.1972ZM89.2186 35.66H91.2593V22.0539H89.2186V35.66ZM85.9964 27.714C85.4594 27.1698 84.6001 26.6255 83.526 26.6255C81.2705 26.6255 79.1223 28.6936 79.1223 31.306C79.1223 33.9184 81.1631 35.8777 83.526 35.8777C84.6001 35.8777 85.4594 35.3334 85.889 34.7892H85.9964V35.4423C85.9964 37.1838 85.0297 38.1635 83.526 38.1635C82.3445 38.1635 81.4853 37.2927 81.2705 36.5307L79.5519 37.2927C80.089 38.49 81.3779 40.0139 83.6334 40.0139C85.9964 40.0139 87.9297 38.5989 87.9297 35.2246V26.9521H85.9964V27.714ZM83.6334 34.1361C82.2371 34.1361 81.0556 32.9387 81.0556 31.306C81.0556 29.6733 82.2371 28.4759 83.6334 28.4759C85.0297 28.4759 86.1038 29.6733 86.1038 31.306C86.1038 32.9387 85.0297 34.1361 83.6334 34.1361ZM109.841 22.0539H105.008V35.66H107.048V30.5441H109.841C112.096 30.5441 114.245 28.9113 114.245 26.299C114.245 23.6866 112.096 22.0539 109.841 22.0539ZM109.948 28.5848H107.048V23.9043H109.948C111.452 23.9043 112.311 25.2105 112.311 26.1901C112.204 27.3875 111.345 28.5848 109.948 28.5848ZM122.3 26.6255C120.796 26.6255 119.293 27.2786 118.756 28.6936L120.582 29.4556C121.011 28.6936 121.656 28.4759 122.408 28.4759C123.482 28.4759 124.448 29.129 124.556 30.2175V30.3264C124.233 30.1087 123.374 29.7821 122.515 29.7821C120.582 29.7821 118.648 30.8706 118.648 32.8299C118.648 34.6803 120.259 35.8777 121.978 35.8777C123.374 35.8777 124.019 35.2246 124.556 34.5715H124.663V35.66H126.596V30.4352C126.382 28.0405 124.556 26.6255 122.3 26.6255ZM122.085 34.1361C121.441 34.1361 120.474 33.8095 120.474 32.9387C120.474 31.8502 121.656 31.5237 122.622 31.5237C123.482 31.5237 123.911 31.7414 124.448 31.9591C124.233 33.2653 123.159 34.1361 122.085 34.1361ZM133.363 26.9521L131.108 32.8299H131L128.637 26.9521H126.489L130.033 35.2246L127.993 39.7962H130.033L135.511 26.9521H133.363ZM115.319 35.66H117.359V22.0539H115.319V35.66Z" fill="#1A1C1E"/>
<path opacity="0.12" d="M34.8694 26.1902L29.499 29.238L29.6064 29.3469L34.8694 26.2991C35.6212 25.8637 35.9435 25.3195 35.9435 24.7752C35.9435 25.3195 35.5138 25.7548 34.8694 26.1902Z" fill="black"/>
<path opacity="0.25" d="M13.9254 11.2786L34.8699 23.3608C35.5143 23.7962 35.9439 24.2316 35.9439 24.7758C35.9439 24.2316 35.6217 23.6873 34.8699 23.2519L13.9254 11.1697C12.4217 10.2989 11.2402 11.0609 11.2402 12.8025V12.9113C11.2402 11.1697 12.4217 10.4078 13.9254 11.2786Z" fill="white"/>
<g clip-path="url(#clip0_1910_11901)">
<path d="M26.3651 23.48L13.7876 36.0575C13.1863 35.4888 12.8613 34.7088 12.8613 33.8638V14.1363C12.8613 13.275 13.2026 12.495 13.8201 11.91L26.3651 23.48Z" fill="#2196F3"/>
<path d="M37.2355 24C37.2355 25.1375 36.618 26.145 35.5943 26.7138L32.0193 28.6963L27.583 24.6013L26.3643 23.48L31.0605 18.7838L35.5943 21.2863C36.618 21.855 37.2355 22.8625 37.2355 24Z" fill="#FFC107"/>
<path d="M26.3643 23.48L13.8193 11.91C13.9818 11.7475 14.1931 11.6012 14.4043 11.4712C15.4281 10.8537 16.6631 10.8375 17.7193 11.4225L31.0606 18.7837L26.3643 23.48Z" fill="#4CAF50"/>
<path d="M32.0196 28.6963L17.7196 36.5775C17.2159 36.87 16.6471 37 16.0946 37C15.5096 37 14.9246 36.8538 14.4046 36.5288C14.179 36.3995 13.9713 36.2411 13.7871 36.0575L26.3646 23.48L27.5834 24.6013L32.0196 28.6963Z" fill="#F44336"/>
</g>
<defs>
<clipPath id="clip0_1910_11901">
<rect width="26" height="26" fill="white" transform="translate(12.8447 11)"/>
</clipPath>
</defs>
</svg>
