<svg width="18" height="18" viewBox="0 0 18 18" fill="none" xmlns="http://www.w3.org/2000/svg">
<path d="M12.1366 3.4909V11.1403C12.1366 12.24 11.2486 13.1312 10.1529 13.1312H4.63748C3.54182 13.1312 2.65381 12.24 2.65381 11.1403V3.4909C2.65381 2.39124 3.54182 1.5 4.63748 1.5H10.1529C11.2486 1.5 12.1366 2.39124 12.1366 3.4909ZM10.5496 3.4909C10.5496 3.27003 10.3714 3.09272 10.1529 3.09272H4.63748C4.41742 3.09272 4.24075 3.27003 4.24075 3.4909V11.1403C4.24075 11.3596 4.41742 11.5385 4.63748 11.5385H10.1529C10.3714 11.5385 10.5496 11.3596 10.5496 11.1403V3.4909ZM13.5654 6.46167C13.1284 6.46167 12.772 6.10549 12.772 5.66531C12.772 5.22514 13.1284 4.86895 13.5654 4.86895C14.5402 4.86895 15.3461 5.63732 15.3461 6.60633V14.7626C15.3461 15.7316 14.5403 16.5 13.5654 16.5H7.64378C6.669 16.5 5.86312 15.7316 5.86312 14.7626C5.86312 14.324 6.21801 13.9663 6.65659 13.9663C7.09516 13.9663 7.45006 14.324 7.45006 14.7626C7.45006 14.8342 7.52754 14.9073 7.64377 14.9073H13.5654C13.6817 14.9073 13.7592 14.8342 13.7592 14.7626V6.60633C13.7592 6.53634 13.6817 6.46167 13.5654 6.46167ZM6.16237 5.93595C5.72533 5.93595 5.3689 5.57977 5.3689 5.13959C5.3689 4.69941 5.72535 4.34324 6.16237 4.34324H8.00965C8.44824 4.34324 8.80312 4.69942 8.80312 5.13959C8.80312 5.57978 8.44823 5.93595 8.00965 5.93595H6.16237ZM6.16237 8.31571C5.72533 8.31571 5.3689 7.95953 5.3689 7.51935C5.3689 7.07918 5.72535 6.72299 6.16237 6.72299H6.43513C6.87372 6.72299 7.2286 7.07918 7.2286 7.51935C7.2286 7.95953 6.87371 8.31571 6.43513 8.31571H6.16237Z" fill="#001D32"/>
</svg>
