<svg width="18" height="18" viewBox="0 0 18 18" fill="none" xmlns="http://www.w3.org/2000/svg">
<g id="icon">
<path id="Vector" d="M6.2175 9.2175C6.1472 9.28722 6.09141 9.37017 6.05333 9.46157C6.01526 9.55296 5.99565 9.65099 5.99565 9.75C5.99565 9.84901 6.01526 9.94704 6.05333 10.0384C6.09141 10.1298 6.1472 10.2128 6.2175 10.2825L8.4675 12.5325C8.53722 12.6028 8.62017 12.6586 8.71157 12.6967C8.80296 12.7347 8.90099 12.7543 9 12.7543C9.09901 12.7543 9.19704 12.7347 9.28843 12.6967C9.37983 12.6586 9.46278 12.6028 9.5325 12.5325L11.7825 10.2825C11.9237 10.1413 12.0031 9.94973 12.0031 9.75C12.0031 9.55027 11.9237 9.35873 11.7825 9.2175C11.6413 9.07627 11.4497 8.99693 11.25 8.99693C11.0503 8.99693 10.8587 9.07627 10.7175 9.2175L9.75 10.1925V1.5C9.75 1.30109 9.67098 1.11032 9.53033 0.96967C9.38968 0.829018 9.19891 0.75 9 0.75C8.80109 0.75 8.61032 0.829018 8.46967 0.96967C8.32902 1.11032 8.25 1.30109 8.25 1.5V10.1925L7.2825 9.2175C7.21278 9.1472 7.12983 9.09141 7.03843 9.05333C6.94704 9.01525 6.84901 8.99565 6.75 8.99565C6.65099 8.99565 6.55296 9.01525 6.46157 9.05333C6.37017 9.09141 6.28722 9.1472 6.2175 9.2175ZM13.5 6H12C11.8011 6 11.6103 6.07902 11.4697 6.21967C11.329 6.36032 11.25 6.55109 11.25 6.75C11.25 6.94891 11.329 7.13968 11.4697 7.28033C11.6103 7.42098 11.8011 7.5 12 7.5H13.5C13.6989 7.5 13.8897 7.57902 14.0303 7.71967C14.171 7.86032 14.25 8.05109 14.25 8.25V13.5C14.25 13.6989 14.171 13.8897 14.0303 14.0303C13.8897 14.171 13.6989 14.25 13.5 14.25H4.5C4.30109 14.25 4.11032 14.171 3.96967 14.0303C3.82902 13.8897 3.75 13.6989 3.75 13.5V8.25C3.75 8.05109 3.82902 7.86032 3.96967 7.71967C4.11032 7.57902 4.30109 7.5 4.5 7.5H6C6.19891 7.5 6.38968 7.42098 6.53033 7.28033C6.67098 7.13968 6.75 6.94891 6.75 6.75C6.75 6.55109 6.67098 6.36032 6.53033 6.21967C6.38968 6.07902 6.19891 6 6 6H4.5C3.90326 6 3.33097 6.23705 2.90901 6.65901C2.48705 7.08097 2.25 7.65326 2.25 8.25V13.5C2.25 14.0967 2.48705 14.669 2.90901 15.091C3.33097 15.5129 3.90326 15.75 4.5 15.75H13.5C14.0967 15.75 14.669 15.5129 15.091 15.091C15.5129 14.669 15.75 14.0967 15.75 13.5V8.25C15.75 7.65326 15.5129 7.08097 15.091 6.65901C14.669 6.23705 14.0967 6 13.5 6Z" fill="white"/>
</g>
</svg>
