<svg width="19" height="18" viewBox="0 0 19 18" fill="none" xmlns="http://www.w3.org/2000/svg">
<g id="icon">
<path id="Vector" d="M6.7175 9.2175C6.6472 9.28722 6.59141 9.37017 6.55333 9.46157C6.51526 9.55296 6.49565 9.65099 6.49565 9.75C6.49565 9.84901 6.51526 9.94704 6.55333 10.0384C6.59141 10.1298 6.6472 10.2128 6.7175 10.2825L8.9675 12.5325C9.03722 12.6028 9.12017 12.6586 9.21157 12.6967C9.30296 12.7347 9.40099 12.7543 9.5 12.7543C9.59901 12.7543 9.69704 12.7347 9.78843 12.6967C9.87983 12.6586 9.96278 12.6028 10.0325 12.5325L12.2825 10.2825C12.4237 10.1413 12.5031 9.94973 12.5031 9.75C12.5031 9.55027 12.4237 9.35873 12.2825 9.2175C12.1413 9.07627 11.9497 8.99693 11.75 8.99693C11.5503 8.99693 11.3587 9.07627 11.2175 9.2175L10.25 10.1925V1.5C10.25 1.30109 10.171 1.11032 10.0303 0.96967C9.88968 0.829018 9.69891 0.75 9.5 0.75C9.30109 0.75 9.11032 0.829018 8.96967 0.96967C8.82902 1.11032 8.75 1.30109 8.75 1.5V10.1925L7.7825 9.2175C7.71278 9.1472 7.62983 9.09141 7.53843 9.05333C7.44704 9.01525 7.34901 8.99565 7.25 8.99565C7.15099 8.99565 7.05296 9.01525 6.96157 9.05333C6.87017 9.09141 6.78722 9.1472 6.7175 9.2175ZM14 6H12.5C12.3011 6 12.1103 6.07902 11.9697 6.21967C11.829 6.36032 11.75 6.55109 11.75 6.75C11.75 6.94891 11.829 7.13968 11.9697 7.28033C12.1103 7.42098 12.3011 7.5 12.5 7.5H14C14.1989 7.5 14.3897 7.57902 14.5303 7.71967C14.671 7.86032 14.75 8.05109 14.75 8.25V13.5C14.75 13.6989 14.671 13.8897 14.5303 14.0303C14.3897 14.171 14.1989 14.25 14 14.25H5C4.80109 14.25 4.61032 14.171 4.46967 14.0303C4.32902 13.8897 4.25 13.6989 4.25 13.5V8.25C4.25 8.05109 4.32902 7.86032 4.46967 7.71967C4.61032 7.57902 4.80109 7.5 5 7.5H6.5C6.69891 7.5 6.88968 7.42098 7.03033 7.28033C7.17098 7.13968 7.25 6.94891 7.25 6.75C7.25 6.55109 7.17098 6.36032 7.03033 6.21967C6.88968 6.07902 6.69891 6 6.5 6H5C4.40326 6 3.83097 6.23705 3.40901 6.65901C2.98705 7.08097 2.75 7.65326 2.75 8.25V13.5C2.75 14.0967 2.98705 14.669 3.40901 15.091C3.83097 15.5129 4.40326 15.75 5 15.75H14C14.5967 15.75 15.169 15.5129 15.591 15.091C16.0129 14.669 16.25 14.0967 16.25 13.5V8.25C16.25 7.65326 16.0129 7.08097 15.591 6.65901C15.169 6.23705 14.5967 6 14 6Z" fill="#1A1C1E"/>
</g>
</svg>
