<svg width="136" height="40" viewBox="0 0 136 40" fill="none" xmlns="http://www.w3.org/2000/svg">
<g clip-path="url(#clip0_2163_101200)">
<path d="M130.664 0H5.66406C2.90264 0 0.664062 2.23858 0.664062 5V35C0.664062 37.7614 2.90264 40 5.66406 40H130.664C133.425 40 135.664 37.7614 135.664 35V5C135.664 2.23858 133.425 0 130.664 0Z" fill="black"/>
<path d="M130.664 0.8C132.984 0.8 134.864 2.68 134.864 5V35C134.864 37.32 132.984 39.2 130.664 39.2H5.66406C3.34406 39.2 1.46406 37.32 1.46406 35V5C1.46406 2.68 3.34406 0.8 5.66406 0.8H130.664ZM130.664 0H5.66406C2.91406 0 0.664062 2.25 0.664062 5V35C0.664062 37.75 2.91406 40 5.66406 40H130.664C133.414 40 135.664 37.75 135.664 35V5C135.664 2.25 133.414 0 130.664 0Z" fill="#A6A6A6"/>
<path d="M48.084 10.24C48.084 11.08 47.834 11.75 47.334 12.24C46.774 12.83 46.044 13.13 45.134 13.13C44.224 13.13 43.524 12.83 42.924 12.23C42.324 11.63 42.024 10.88 42.024 10C42.024 9.12 42.324 8.37 42.924 7.77C43.524 7.17 44.264 6.86 45.134 6.86C45.574 6.86 45.994 6.94 46.384 7.09C46.774 7.25 47.094 7.47 47.344 7.75L46.794 8.3C46.614 8.08 46.374 7.9 46.074 7.78C45.784 7.65 45.464 7.59 45.134 7.59C44.484 7.59 43.924 7.82 43.474 8.27C43.024 8.73 42.804 9.3 42.804 9.99C42.804 10.68 43.024 11.25 43.474 11.71C43.924 12.16 44.474 12.39 45.134 12.39C45.734 12.39 46.224 12.22 46.624 11.89C47.024 11.56 47.254 11.09 47.314 10.51H45.134V9.79H48.044C48.074 9.95 48.084 10.1 48.084 10.24Z" fill="white" stroke="white" stroke-width="0.2" stroke-miterlimit="10"/>
<path d="M52.6941 7V7.74H49.9641V9.64H52.4241V10.36H49.9641V12.26H52.6941V13H49.1941V7H52.6941Z" fill="white" stroke="white" stroke-width="0.2" stroke-miterlimit="10"/>
<path d="M55.944 7.74V13H55.174V7.74H53.494V7H57.614V7.74H55.934H55.944Z" fill="white" stroke="white" stroke-width="0.2" stroke-miterlimit="10"/>
<path d="M61.374 13H60.604V7H61.374V13Z" fill="white" stroke="white" stroke-width="0.2" stroke-miterlimit="10"/>
<path d="M64.794 7.74V13H64.024V7.74H62.344V7H66.464V7.74H64.784H64.794Z" fill="white" stroke="white" stroke-width="0.2" stroke-miterlimit="10"/>
<path d="M75.154 10C75.154 10.89 74.854 11.63 74.264 12.23C73.664 12.83 72.934 13.13 72.064 13.13C71.194 13.13 70.464 12.83 69.864 12.23C69.274 11.63 68.974 10.89 68.974 10C68.974 9.11 69.274 8.37 69.864 7.77C70.454 7.17 71.184 6.86 72.064 6.86C72.944 6.86 73.664 7.16 74.264 7.77C74.854 8.37 75.154 9.11 75.154 9.99V10ZM69.774 10C69.774 10.69 69.994 11.27 70.424 11.72C70.864 12.17 71.414 12.4 72.064 12.4C72.714 12.4 73.264 12.17 73.694 11.72C74.134 11.27 74.354 10.7 74.354 10C74.354 9.3 74.134 8.73 73.694 8.28C73.254 7.83 72.714 7.6 72.064 7.6C71.414 7.6 70.864 7.83 70.424 8.28C69.984 8.73 69.774 9.31 69.774 10Z" fill="white" stroke="white" stroke-width="0.2" stroke-miterlimit="10"/>
<path d="M77.004 13H76.234V7H77.174L80.094 11.67H80.124L80.094 10.51V7H80.864V13H80.064L77.014 8.11H76.984L77.014 9.27V13.01L77.004 13Z" fill="white" stroke="white" stroke-width="0.2" stroke-miterlimit="10"/>
<path d="M68.8041 21.75C66.4541 21.75 64.5341 23.54 64.5341 26C64.5341 28.46 66.4541 30.25 68.8041 30.25C71.1541 30.25 73.0741 28.45 73.0741 26C73.0741 23.55 71.1541 21.75 68.8041 21.75ZM68.8041 28.58C67.5141 28.58 66.4041 27.52 66.4041 26C66.4041 24.48 67.5141 23.42 68.8041 23.42C70.0941 23.42 71.2041 24.47 71.2041 26C71.2041 27.53 70.0941 28.58 68.8041 28.58ZM59.4941 21.75C57.1441 21.75 55.2241 23.54 55.2241 26C55.2241 28.46 57.1441 30.25 59.4941 30.25C61.8441 30.25 63.7641 28.45 63.7641 26C63.7641 23.55 61.8441 21.75 59.4941 21.75ZM59.4941 28.58C58.2041 28.58 57.0941 27.52 57.0941 26C57.0941 24.48 58.2041 23.42 59.4941 23.42C60.7841 23.42 61.8941 24.47 61.8941 26C61.8941 27.53 60.7841 28.58 59.4941 28.58ZM48.4141 23.05V24.85H52.7341C52.6041 25.86 52.2641 26.61 51.7541 27.12C51.1241 27.75 50.1441 28.44 48.4241 28.44C45.7641 28.44 43.6841 26.3 43.6841 23.64C43.6841 20.98 45.7641 18.84 48.4241 18.84C49.8541 18.84 50.9041 19.4 51.6741 20.13L52.9441 18.86C51.8641 17.83 50.4341 17.04 48.4141 17.04C44.7741 17.04 41.7141 20 41.7141 23.65C41.7141 27.3 44.7741 30.26 48.4141 30.26C50.3841 30.26 51.8641 29.62 53.0241 28.41C54.2141 27.22 54.5841 25.54 54.5841 24.19C54.5841 23.77 54.5541 23.38 54.4841 23.06H48.4141V23.05ZM93.7241 24.45C93.3741 23.5 92.2941 21.74 90.0841 21.74C87.8741 21.74 86.0741 23.46 86.0741 25.99C86.0741 28.37 87.8741 30.24 90.2941 30.24C92.2441 30.24 93.3741 29.05 93.8341 28.36L92.3841 27.39C91.9041 28.1 91.2441 28.57 90.2941 28.57C89.3441 28.57 88.6641 28.14 88.2341 27.28L93.9241 24.93L93.7341 24.45H93.7241ZM87.9241 25.87C87.8741 24.23 89.1941 23.39 90.1441 23.39C90.8841 23.39 91.5141 23.76 91.7241 24.29L87.9241 25.87ZM83.3041 29.99H85.1741V17.49H83.3041V29.99ZM80.2441 22.69H80.1841C79.7641 22.19 78.9641 21.74 77.9441 21.74C75.8141 21.74 73.8641 23.61 73.8641 26.01C73.8641 28.41 75.8141 30.25 77.9441 30.25C78.9541 30.25 79.7641 29.8 80.1841 29.28H80.2441V29.89C80.2441 31.52 79.3741 32.39 77.9741 32.39C76.8341 32.39 76.1241 31.57 75.8341 30.88L74.2041 31.56C74.6741 32.69 75.9141 34.07 77.9741 34.07C80.1641 34.07 82.0141 32.78 82.0141 29.64V22H80.2441V22.69ZM78.1041 28.57C76.8141 28.57 75.7341 27.49 75.7341 26.01C75.7341 24.53 76.8141 23.42 78.1041 23.42C79.3941 23.42 80.3741 24.52 80.3741 26.01C80.3741 27.5 79.3741 28.57 78.1041 28.57ZM102.484 17.49H98.0141V29.99H99.8841V25.25H102.494C104.564 25.25 106.594 23.75 106.594 21.37C106.594 18.99 104.564 17.49 102.494 17.49H102.484ZM102.534 23.52H99.8841V19.23H102.534C103.934 19.23 104.724 20.39 104.724 21.37C104.724 22.35 103.934 23.51 102.534 23.51V23.52ZM114.064 21.72C112.714 21.72 111.314 22.32 110.734 23.63L112.394 24.32C112.744 23.63 113.404 23.4 114.094 23.4C115.054 23.4 116.044 23.98 116.054 25.01V25.14C115.714 24.95 114.994 24.66 114.104 24.66C112.314 24.66 110.504 25.64 110.504 27.47C110.504 29.14 111.964 30.22 113.604 30.22C114.854 30.22 115.554 29.66 115.984 29H116.044V29.96H117.844V25.17C117.844 22.95 116.184 21.71 114.044 21.71L114.064 21.72ZM113.834 28.57C113.224 28.57 112.374 28.26 112.374 27.51C112.374 26.55 113.434 26.18 114.354 26.18C115.174 26.18 115.564 26.36 116.054 26.6C115.914 27.76 114.914 28.58 113.834 28.58V28.57ZM124.414 21.99L122.274 27.41H122.214L119.994 21.99H117.984L121.314 29.57L119.414 33.78H121.364L126.494 21.99H124.424H124.414ZM107.604 29.99H109.474V17.49H107.604V29.99Z" fill="white"/>
<path d="M21.384 19.42L10.734 30.72C11.064 31.95 12.184 32.85 13.514 32.85C14.044 32.85 14.544 32.71 14.974 32.45L15.004 32.43L26.984 25.52L21.374 19.41L21.384 19.42Z" fill="#EA4335"/>
<path d="M32.154 17.5H32.144L26.974 14.49L21.144 19.68L26.994 25.53L32.144 22.56C33.044 22.07 33.654 21.12 33.654 20.03C33.654 18.94 33.054 17.99 32.154 17.51V17.5Z" fill="#FBBC04"/>
<path d="M10.734 9.28C10.674 9.52 10.634 9.76 10.634 10.02V29.98C10.634 30.24 10.664 30.48 10.734 30.72L21.744 19.71L10.734 9.28Z" fill="#4285F4"/>
<path d="M21.464 20L26.974 14.49L15.004 7.55C14.574 7.29 14.064 7.14 13.514 7.14C12.184 7.14 11.064 8.05 10.734 9.27L21.464 19.99V20Z" fill="#34A853"/>
</g>
<defs>
<clipPath id="clip0_2163_101200">
<rect width="135" height="40" fill="white" transform="translate(0.664062)"/>
</clipPath>
</defs>
</svg>
