<svg width="143" height="24" viewBox="0 0 143 24" fill="none" xmlns="http://www.w3.org/2000/svg">
<path d="M21.9656 6.16894C21.1298 3.33457 18.6634 1.57218 16.3014 1.9719C15.0568 0.495663 13.2218 -0.240187 11.4912 0.264003C10.8848 0.45616 10.3272 0.777333 9.85678 1.20545C9.38633 1.63356 9.01415 2.15847 8.76583 2.74409C8.2731 2.37893 7.70453 2.1293 7.10224 2.01372C6.49994 1.89813 5.87936 1.91956 5.28646 2.07637C3.31966 2.6487 2.1523 4.77447 2.34762 7.07286C0.444418 8.14029 -0.500365 10.7612 0.267276 13.3911C1.06671 16.1165 3.44685 17.8743 5.71798 17.511C6.92622 19.455 8.97477 20.4861 10.9416 19.9138C11.62 19.6848 12.233 19.295 12.7281 18.7777C13.2233 18.2604 13.5859 17.631 13.785 16.9432C14.316 17.3842 14.9445 17.6922 15.6184 17.8415C16.2922 17.9908 16.992 17.9771 17.6596 17.8017C19.8989 17.1476 21.1344 14.6221 20.6938 11.9649C22.0565 10.6976 22.6106 8.44916 21.952 6.19166L21.9656 6.16894Z" fill="#9EDCFF"/>
<path d="M20.5822 23.194C21.8267 23.194 22.8356 22.1852 22.8356 20.9407C22.8356 19.6962 21.8267 18.6873 20.5822 18.6873C19.3377 18.6873 18.3289 19.6962 18.3289 20.9407C18.3289 22.1852 19.3377 23.194 20.5822 23.194Z" fill="#9EDCFF"/>
<path d="M26.0016 23.8942C26.8324 23.8942 27.5059 23.2207 27.5059 22.39C27.5059 21.5592 26.8324 20.8857 26.0016 20.8857C25.1708 20.8857 24.4973 21.5592 24.4973 22.39C24.4973 23.2207 25.1708 23.8942 26.0016 23.8942Z" fill="#9EDCFF"/>
<path d="M30.3891 22.3893C31.0639 22.3893 31.6109 21.8423 31.6109 21.1675C31.6109 20.4927 31.0639 19.9456 30.3891 19.9456C29.7143 19.9456 29.1672 20.4927 29.1672 21.1675C29.1672 21.8423 29.7143 22.3893 30.3891 22.3893Z" fill="#9EDCFF"/>
<path d="M37.971 18.4674V9.4456L34.6828 16.0145H32.8222L29.5948 9.4456V18.437H26.1243V3.44629H29.9213L33.8171 11.291L37.7204 3.44629H41.4643V18.4674H37.971Z" fill="white"/>
<path d="M43.6816 18.4659V7.35577H47.0686V18.4659H43.6816Z" fill="white"/>
<path d="M59.7433 18.4681H56.3563V12.2258C56.405 11.663 56.2603 11.1005 55.9463 10.631C55.8154 10.4683 55.6485 10.3383 55.4587 10.2513C55.2689 10.1643 55.0614 10.1227 54.8527 10.1298C54.607 10.1326 54.3644 10.1843 54.1389 10.2817C53.8877 10.3845 53.6524 10.5226 53.4402 10.6918C53.2117 10.8723 53.0075 11.0816 52.8327 11.3145C52.661 11.5471 52.5229 11.8027 52.4226 12.0739V18.4453H49.0356V7.35798H52.0733V9.21853C52.4949 8.55559 53.0987 8.02826 53.8123 7.69972C54.6215 7.32822 55.5041 7.1439 56.3943 7.16052C56.9964 7.13432 57.5945 7.27074 58.1257 7.55543C58.5484 7.79941 58.8994 8.15038 59.1434 8.57303C59.3855 8.99267 59.5477 9.45359 59.6218 9.93238C59.6965 10.4097 59.7346 10.8921 59.7357 11.3752L59.7433 18.4681Z" fill="white"/>
<path d="M66.2361 18.6792C65.5121 18.6862 64.7949 18.5386 64.1325 18.2463C63.4988 17.9595 62.9322 17.543 62.4694 17.0237C61.9948 16.4879 61.6263 15.8668 61.3835 15.1935C61.1177 14.4635 60.984 13.6921 60.9886 12.9153C60.9813 12.1408 61.1045 11.3706 61.3531 10.6371C61.5708 9.96855 61.9136 9.34748 62.3631 8.80688C62.793 8.29913 63.3229 7.88549 63.9199 7.59183C64.5368 7.29056 65.2154 7.13716 65.902 7.14378C66.6401 7.13695 67.3666 7.32841 68.0055 7.69816C68.617 8.04769 69.1192 8.5604 69.456 9.17899V3.0202H72.8353V14.6543C72.8124 14.9031 72.8682 15.1528 72.9948 15.3682C73.1442 15.518 73.3453 15.605 73.5568 15.6112V18.4665C73.2913 18.5274 73.0225 18.5731 72.7518 18.6032C72.5418 18.614 72.3315 18.614 72.1215 18.6032C71.6141 18.6269 71.1113 18.4973 70.6786 18.2311C70.4998 18.1133 70.3502 17.9563 70.241 17.7721C70.1318 17.588 70.0659 17.3814 70.0483 17.168L69.98 16.5908C69.6101 17.2435 69.0552 17.772 68.3852 18.1096C67.7241 18.4672 66.9875 18.6624 66.2361 18.6792ZM67.1474 15.8238C67.6263 15.8167 68.093 15.6717 68.4915 15.4061C68.9223 15.1336 69.2631 14.74 69.4712 14.2746V11.9508C69.2743 11.3965 68.9175 10.9129 68.446 10.5611C68.0312 10.223 67.5153 10.0332 66.9803 10.0219C66.6288 10.0185 66.2818 10.102 65.9703 10.2649C65.682 10.4349 65.4251 10.6533 65.2109 10.9104C64.9791 11.1848 64.8036 11.5023 64.6945 11.8445C64.5713 12.2063 64.5097 12.5862 64.5122 12.9684C64.5104 13.3568 64.5773 13.7425 64.7097 14.1076C64.8366 14.443 65.0245 14.7519 65.2641 15.0188C65.5021 15.2712 65.7889 15.4727 66.107 15.6112C66.4371 15.7477 66.7902 15.8199 67.1474 15.8238Z" fill="white"/>
<path d="M75.7366 18.4674V3.44629H77.6427V16.7739H85.2368V18.4674H75.7366Z" fill="white"/>
<path d="M91.3648 18.6794C90.5802 18.6889 89.803 18.5282 89.0865 18.2085C88.423 17.9173 87.8261 17.4935 87.3323 16.9631C86.8417 16.4338 86.4576 15.815 86.2008 15.1405C85.9332 14.4478 85.7967 13.7113 85.7983 12.9686C85.7858 11.4777 86.3426 10.0382 87.3551 8.94376C87.8724 8.39823 88.4953 7.96378 89.186 7.66688C89.8767 7.36998 90.6206 7.21686 91.3723 7.21686C92.1241 7.21686 92.868 7.36998 93.5587 7.66688C94.2494 7.96378 94.8723 8.39823 95.3896 8.94376C95.8849 9.47239 96.2741 10.0911 96.5363 10.7663C96.812 11.4676 96.9512 12.2151 96.9464 12.9686C96.9518 13.7116 96.8152 14.4488 96.5439 15.1405C96.2873 15.8168 95.9002 16.4361 95.4048 16.9631C94.8845 17.5102 94.2576 17.9448 93.5627 18.24C92.8678 18.5352 92.1197 18.6847 91.3648 18.6794ZM87.7044 12.9838C87.6981 13.5332 87.7933 14.079 87.9854 14.5938C88.1584 15.0665 88.4157 15.5039 88.7448 15.8848C89.0744 16.2469 89.4717 16.541 89.9143 16.7505C90.361 16.9604 90.8484 17.0692 91.342 17.0692C91.8355 17.0692 92.323 16.9604 92.7697 16.7505C93.213 16.5389 93.6104 16.2422 93.9391 15.8772C94.2851 15.4932 94.5556 15.0475 94.7365 14.5634C94.9273 14.0457 95.0225 13.4976 95.0175 12.9458C95.0226 12.399 94.9273 11.8559 94.7365 11.3435C94.5572 10.8609 94.2865 10.4174 93.9391 10.0373C93.6128 9.66776 93.2149 9.3681 92.7697 9.1564C92.3237 8.94388 91.836 8.83361 91.342 8.83361C90.848 8.83361 90.3602 8.94388 89.9143 9.1564C89.4703 9.37363 89.0731 9.67545 88.7448 10.0449C88.4171 10.4353 88.1601 10.8799 87.9854 11.3587C87.7937 11.8788 87.6984 12.4295 87.7044 12.9838Z" fill="white"/>
<path d="M103.25 18.5953C102.536 18.6017 101.831 18.4404 101.192 18.1245C100.573 17.8245 100.022 17.4007 99.5741 16.8791C99.1154 16.3499 98.7599 15.7394 98.5261 15.0793C98.277 14.4035 98.1509 13.6884 98.154 12.9682C98.1484 12.213 98.2743 11.4626 98.5261 10.7507C98.7544 10.0789 99.1102 9.45743 99.5741 8.92049C100.023 8.4012 100.573 7.97984 101.192 7.68266C101.841 7.37356 102.553 7.21767 103.272 7.22701C104.128 7.20431 104.97 7.44272 105.687 7.91049C106.366 8.35989 106.947 8.94094 107.396 9.61916V7.42446H109.051V18.3371C109.065 19.0585 108.912 19.7733 108.603 20.4255C108.316 21.0134 107.904 21.5316 107.396 21.9443C106.866 22.3653 106.26 22.6799 105.611 22.8708C104.903 23.0872 104.165 23.1948 103.424 23.1898C102.374 23.232 101.329 23.01 100.387 22.5443C99.6028 22.111 98.9317 21.4997 98.4274 20.7597L99.5057 19.8028C99.9251 20.4375 100.511 20.9445 101.199 21.2685C101.913 21.5969 102.691 21.7629 103.477 21.7545C103.969 21.7542 104.457 21.6826 104.928 21.5418C105.363 21.408 105.768 21.1914 106.12 20.9039C106.466 20.6165 106.743 20.256 106.933 19.8484C107.151 19.3726 107.258 18.853 107.244 18.3296V16.3855C106.822 17.0564 106.24 17.6122 105.551 18.003C105.211 18.1927 104.849 18.3382 104.472 18.4359C104.073 18.5424 103.662 18.596 103.25 18.5953ZM103.827 17.0765C104.217 17.0794 104.603 17.0072 104.966 16.8639C105.33 16.7266 105.673 16.5373 105.983 16.3019C106.274 16.0893 106.53 15.8331 106.743 15.5425C106.942 15.2692 107.087 14.9597 107.168 14.6312V11.419C107.017 11.0468 106.813 10.6989 106.561 10.3861C106.319 10.0775 106.038 9.80181 105.725 9.566C105.419 9.33943 105.081 9.15787 104.723 9.02682C104.371 8.90437 104.002 8.84024 103.629 8.83697C103.1 8.82745 102.578 8.95289 102.11 9.20147C101.672 9.43591 101.286 9.75919 100.979 10.1507C100.651 10.5523 100.394 11.0069 100.22 11.4949C100.054 11.9841 99.9692 12.4972 99.969 13.0137C99.9667 13.5493 100.067 14.0804 100.265 14.5781C100.45 15.0551 100.723 15.493 101.07 15.8691C101.408 16.2358 101.813 16.5347 102.262 16.75C102.754 16.9679 103.29 17.0668 103.827 17.0386V17.0765Z" fill="white"/>
<path d="M116.091 18.5953C115.378 18.6017 114.673 18.4404 114.033 18.1245C113.414 17.8245 112.864 17.4007 112.415 16.8791C111.957 16.3499 111.601 15.7394 111.367 15.0793C111.118 14.4035 110.992 13.6884 110.995 12.9682C110.99 12.213 111.116 11.4626 111.367 10.7507C111.596 10.0789 111.952 9.45743 112.415 8.92049C112.864 8.4012 113.414 7.97984 114.033 7.68266C114.683 7.37356 115.394 7.21767 116.114 7.22701C116.969 7.20431 117.812 7.44272 118.529 7.91049C119.207 8.35989 119.788 8.94094 120.237 9.61916V7.42446H121.893V18.3371C121.907 19.0585 121.753 19.7733 121.445 20.4255C121.157 21.0134 120.745 21.5316 120.237 21.9443C119.708 22.3653 119.102 22.6799 118.453 22.8708C117.744 23.0872 117.007 23.1948 116.266 23.1898C115.215 23.232 114.171 23.01 113.228 22.5443C112.444 22.111 111.773 21.4997 111.269 20.7597L112.355 19.8028C112.769 20.4388 113.353 20.9464 114.041 21.2685C114.755 21.5969 115.533 21.7629 116.319 21.7545C116.81 21.7542 117.299 21.6826 117.769 21.5418C118.204 21.408 118.609 21.1914 118.961 20.9039C119.307 20.6165 119.585 20.256 119.774 19.8484C119.993 19.3726 120.099 18.853 120.085 18.3296V16.3855C119.663 17.0564 119.082 17.6122 118.392 18.003C118.052 18.1927 117.69 18.3382 117.314 18.4359C116.915 18.5424 116.504 18.596 116.091 18.5953ZM116.668 17.0765C117.058 17.0794 117.445 17.0072 117.807 16.8639C118.172 16.7266 118.514 16.5373 118.825 16.3019C119.115 16.0893 119.372 15.8331 119.584 15.5425C119.784 15.2692 119.928 14.9597 120.009 14.6312V11.419C119.859 11.0468 119.654 10.6989 119.402 10.3861C119.16 10.0775 118.88 9.80181 118.567 9.566C118.26 9.33943 117.922 9.15787 117.564 9.02682C117.212 8.90437 116.843 8.84024 116.471 8.83697C115.942 8.82745 115.419 8.95289 114.952 9.20147C114.513 9.43591 114.127 9.75919 113.82 10.1507C113.506 10.5551 113.262 11.0095 113.099 11.4949C112.933 11.9841 112.848 12.4972 112.848 13.0137C112.846 13.5493 112.946 14.0804 113.144 14.5781C113.329 15.0551 113.602 15.493 113.949 15.8691C114.287 16.2358 114.692 16.5347 115.142 16.75C115.631 16.9667 116.164 17.0656 116.698 17.0386L116.668 17.0765Z" fill="white"/>
<path d="M129.426 18.6788C128.643 18.6875 127.867 18.5323 127.148 18.2232C126.478 17.9354 125.873 17.5142 125.371 16.9853C124.872 16.4556 124.48 15.8341 124.217 15.1552C123.942 14.4509 123.803 13.7011 123.807 12.9453C123.802 12.1918 123.942 11.4444 124.217 10.743C124.483 10.0671 124.88 9.45072 125.386 8.92934C125.892 8.40796 126.496 7.99195 127.163 7.70537C127.883 7.39687 128.659 7.24169 129.442 7.24972C130.555 7.2296 131.648 7.55652 132.568 8.18516C133.488 8.8138 134.189 9.71304 134.575 10.7582C134.833 11.4375 134.964 12.1581 134.962 12.8845C134.962 13.0364 134.962 13.1807 134.962 13.3022C134.969 13.4008 134.969 13.4998 134.962 13.5984H125.766C125.795 14.1242 125.924 14.6397 126.146 15.1172C126.343 15.5527 126.622 15.9469 126.966 16.2791C127.304 16.5967 127.695 16.8537 128.12 17.0385C128.553 17.2207 129.018 17.3137 129.487 17.3119C129.823 17.3117 130.158 17.2658 130.482 17.1752C130.798 17.0844 131.104 16.9597 131.393 16.8031C131.673 16.6511 131.929 16.4593 132.153 16.2335C132.364 16.0138 132.531 15.7561 132.646 15.4741L134.256 15.9222C134.068 16.3369 133.811 16.7168 133.497 17.0461C133.173 17.3878 132.802 17.6818 132.396 17.9194C131.96 18.175 131.493 18.3716 131.006 18.5041C130.489 18.6321 129.958 18.6908 129.426 18.6788ZM133.223 12.2011C133.186 11.6977 133.054 11.2058 132.836 10.7506C132.63 10.3268 132.35 9.94354 132.008 9.61909C131.676 9.29453 131.284 9.03674 130.854 8.85968C129.956 8.50441 128.957 8.50441 128.059 8.85968C127.631 9.03486 127.241 9.29293 126.913 9.61909C126.574 9.94044 126.3 10.3248 126.108 10.7506C125.9 11.2032 125.774 11.6892 125.736 12.1859L133.223 12.2011Z" fill="white"/>
<path d="M142.518 9.05029C141.645 9.06065 140.791 9.31016 140.05 9.77171C139.346 10.2106 138.811 10.8742 138.531 11.6551V18.4897H136.671V7.42515H138.41V9.98435C138.764 9.25663 139.285 8.62205 139.929 8.13139C140.506 7.69364 141.196 7.43014 141.918 7.37198H142.283C142.366 7.36307 142.45 7.36307 142.533 7.37198L142.518 9.05029Z" fill="white"/>
<path d="M45.3371 6.55239C46.2892 6.55239 47.061 5.78058 47.061 4.82852C47.061 3.87646 46.2892 3.10468 45.3371 3.10468C44.3851 3.10468 43.6133 3.87646 43.6133 4.82852C43.6133 5.78058 44.3851 6.55239 45.3371 6.55239Z" fill="white"/>
</svg>
