<svg width="113" height="16" viewBox="0 0 113 16" fill="none" xmlns="http://www.w3.org/2000/svg">
<g opacity="0.4">
<path d="M21.0606 4.44705C20.5866 3.0243 19.1876 2.13964 17.8479 2.34029C17.1419 1.59927 16.1011 1.2299 15.1194 1.48299C14.7755 1.57945 14.4593 1.74066 14.1924 1.95556C13.9256 2.17046 13.7145 2.43394 13.5736 2.7279C13.2941 2.5446 12.9716 2.4193 12.63 2.36128C12.2884 2.30326 11.9364 2.31402 11.6001 2.39273C10.4845 2.68002 9.82237 3.74708 9.93315 4.90078C8.85364 5.43659 8.31775 6.75218 8.75316 8.07232C9.20661 9.44035 10.5566 10.3227 11.8448 10.1403C12.5302 11.1162 13.6921 11.6337 14.8077 11.3465C15.1925 11.2315 15.5402 11.0358 15.8211 10.7762C16.1019 10.5165 16.3076 10.2006 16.4205 9.85531C16.7217 10.0767 17.0782 10.2313 17.4604 10.3062C17.8426 10.3812 18.2396 10.3743 18.6182 10.2862C19.8884 9.95792 20.5891 8.69021 20.3392 7.35638C21.1122 6.72025 21.4265 5.59163 21.0529 4.45845L21.0606 4.44705Z" fill="#00639A"/>
<path d="M23.6109 7.41673C24.3846 7.41673 25.0118 6.96804 25.0118 6.41455C25.0118 5.86105 24.3846 5.41235 23.6109 5.41235C22.8372 5.41235 22.21 5.86105 22.21 6.41455C22.21 6.96804 22.8372 7.41673 23.6109 7.41673Z" fill="#00639A"/>
<path d="M34.0888 11.699V5.37958L31.7855 9.98086H30.4822L28.2215 5.37958V11.6778H25.7905V1.17725H28.4502L31.1791 6.67219L33.9133 1.17725H36.5357V11.699H34.0888Z" fill="#00639A"/>
<path d="M38.0894 11.7012V3.91895H40.4618V11.7012H38.0894Z" fill="#00639A"/>
<path d="M49.3397 11.7048H46.9673V7.33226C47.0013 6.93807 46.9 6.54403 46.68 6.21518C46.5884 6.10119 46.4714 6.01012 46.3385 5.94918C46.2055 5.88824 46.0602 5.8591 45.914 5.8641C45.7419 5.86606 45.572 5.90223 45.414 5.97049C45.238 6.0425 45.0733 6.13922 44.9246 6.25774C44.7646 6.3842 44.6215 6.5308 44.4991 6.69392C44.3788 6.85686 44.2821 7.03593 44.2118 7.22587V11.6889H41.8394V3.92252H43.9671V5.22578C44.2624 4.7614 44.6854 4.39203 45.1853 4.1619C45.7521 3.90167 46.3703 3.77256 46.9939 3.78421C47.4156 3.76585 47.8346 3.86141 48.2067 4.06083C48.5027 4.23173 48.7486 4.47757 48.9195 4.77362C49.0891 5.06757 49.2027 5.39042 49.2546 5.7258C49.307 6.06017 49.3336 6.39805 49.3344 6.73649L49.3397 11.7048Z" fill="#00639A"/>
<path d="M53.8878 11.8505C53.3807 11.8554 52.8784 11.752 52.4144 11.5472C51.9704 11.3464 51.5736 11.0546 51.2494 10.6908C50.9169 10.3155 50.6588 9.8805 50.4887 9.40885C50.3026 8.89753 50.2089 8.35717 50.2121 7.81303C50.207 7.27052 50.2933 6.73103 50.4675 6.2172C50.62 5.74893 50.8601 5.31389 51.1749 4.93522C51.476 4.57955 51.8473 4.28981 52.2654 4.08411C52.6976 3.87309 53.1729 3.76563 53.6538 3.77027C54.1708 3.76549 54.6797 3.8996 55.1273 4.15859C55.5556 4.40343 55.9074 4.76257 56.1433 5.19587V0.881836H58.5104V9.03116C58.4943 9.20542 58.5334 9.38033 58.6221 9.53118C58.7267 9.63615 58.8676 9.69706 59.0157 9.70141V11.7015C58.8298 11.7442 58.6415 11.7761 58.4519 11.7973C58.3048 11.8048 58.1575 11.8048 58.0104 11.7973C57.655 11.8139 57.3028 11.723 56.9997 11.5366C56.8745 11.4541 56.7696 11.3441 56.6932 11.2151C56.6167 11.0861 56.5705 10.9414 56.5582 10.7919L56.5103 10.3876C56.2512 10.8448 55.8625 11.215 55.3932 11.4515C54.9302 11.702 54.4142 11.8387 53.8878 11.8505ZM54.5262 9.85035C54.8616 9.84538 55.1885 9.7438 55.4677 9.55779C55.7695 9.36689 56.0082 9.09117 56.1539 8.76519V7.13745C56.016 6.74914 55.7661 6.4104 55.4358 6.16401C55.1453 5.92717 54.7839 5.79424 54.4091 5.78633C54.1629 5.78393 53.9199 5.84239 53.7017 5.95654C53.4997 6.07561 53.3198 6.22857 53.1697 6.40869C53.0073 6.60091 52.8844 6.82324 52.808 7.06299C52.7217 7.31643 52.6786 7.58255 52.6803 7.85027C52.6791 8.12231 52.7259 8.39243 52.8186 8.64818C52.9075 8.88313 53.0392 9.09955 53.207 9.2865C53.3737 9.46328 53.5746 9.60443 53.7974 9.70141C54.0286 9.79705 54.276 9.84761 54.5262 9.85035Z" fill="#00639A"/>
<path d="M60.5425 11.699V1.17725H61.8777V10.5128H67.1971V11.699H60.5425Z" fill="#00639A"/>
<path d="M71.4896 11.8494C70.9401 11.8561 70.3956 11.7436 69.8938 11.5196C69.429 11.3156 69.0109 11.0188 68.665 10.6473C68.3214 10.2765 68.0523 9.84304 67.8724 9.3706C67.685 8.88533 67.5894 8.36946 67.5905 7.84925C67.5818 6.80493 67.9718 5.7966 68.681 5.02996C69.0433 4.64783 69.4797 4.3435 69.9634 4.13554C70.4472 3.92757 70.9683 3.82031 71.4949 3.82031C72.0215 3.82031 72.5426 3.92757 73.0264 4.13554C73.5102 4.3435 73.9466 4.64783 74.3089 5.02996C74.6558 5.40024 74.9284 5.83362 75.1121 6.30661C75.3052 6.79783 75.4027 7.32144 75.3994 7.84925C75.4032 8.3697 75.3075 8.88607 75.1174 9.3706C74.9377 9.84431 74.6666 10.2781 74.3195 10.6473C73.9551 11.0305 73.5159 11.3349 73.0292 11.5417C72.5424 11.7485 72.0184 11.8532 71.4896 11.8494ZM68.9257 7.85989C68.9212 8.24471 68.9879 8.62703 69.1225 8.9876C69.2436 9.31872 69.4239 9.62512 69.6544 9.8919C69.8853 10.1456 70.1636 10.3516 70.4736 10.4983C70.7865 10.6454 71.1279 10.7216 71.4736 10.7216C71.8194 10.7216 72.1608 10.6454 72.4737 10.4983C72.7842 10.3501 73.0626 10.1423 73.2929 9.88658C73.5352 9.61761 73.7247 9.30541 73.8514 8.96632C73.9851 8.60367 74.0518 8.21976 74.0482 7.83328C74.0518 7.45026 73.9851 7.06985 73.8514 6.71089C73.7258 6.37282 73.5362 6.06216 73.2929 5.79595C73.0643 5.53709 72.7856 5.32719 72.4737 5.1789C72.1613 5.03004 71.8197 4.9528 71.4736 4.9528C71.1276 4.9528 70.786 5.03004 70.4736 5.1789C70.1626 5.33106 69.8844 5.54248 69.6544 5.80128C69.4248 6.07469 69.2448 6.38612 69.1225 6.72152C68.9882 7.08584 68.9215 7.47162 68.9257 7.85989Z" fill="#00639A"/>
<path d="M79.8141 11.7901C79.3144 11.7946 78.8206 11.6816 78.3725 11.4603C77.9391 11.2502 77.5534 10.9533 77.2395 10.5879C76.9182 10.2173 76.6692 9.78966 76.5054 9.32725C76.3309 8.85384 76.2426 8.353 76.2448 7.84845C76.2409 7.3195 76.3291 6.79389 76.5054 6.29518C76.6653 5.8246 76.9146 5.38931 77.2395 5.0132C77.5536 4.64945 77.9393 4.3543 78.3725 4.14613C78.8275 3.92962 79.3262 3.82043 79.83 3.82697C80.4294 3.81107 81.0194 3.97807 81.5216 4.30573C81.9967 4.62051 82.4037 5.02752 82.7185 5.50259V3.96528H83.8781V11.6093C83.8879 12.1146 83.7805 12.6153 83.5642 13.0721C83.3628 13.4839 83.0742 13.8469 82.7185 14.136C82.3475 14.4309 81.923 14.6512 81.4684 14.785C80.972 14.9365 80.4554 15.0119 79.9364 15.0084C79.2005 15.0379 78.469 14.8825 77.8087 14.5562C77.2596 14.2528 76.7895 13.8246 76.4363 13.3062L77.1916 12.6359C77.4854 13.0805 77.8957 13.4356 78.3778 13.6626C78.8781 13.8926 79.4231 14.0089 79.9737 14.003C80.3177 14.0028 80.66 13.9526 80.9897 13.8541C81.2942 13.7603 81.5778 13.6086 81.8248 13.4072C82.0669 13.2059 82.2613 12.9534 82.394 12.6678C82.547 12.3345 82.6217 11.9706 82.6121 11.604V10.2422C82.3165 10.7122 81.9089 11.1015 81.4259 11.3752C81.188 11.5081 80.9342 11.61 80.6705 11.6784C80.3911 11.753 80.1032 11.7906 79.8141 11.7901ZM80.2183 10.7262C80.4914 10.7283 80.7623 10.6777 81.0163 10.5773C81.2716 10.4811 81.5117 10.3486 81.7291 10.1837C81.9326 10.0347 82.112 9.85529 82.261 9.65173C82.4007 9.46025 82.5019 9.24345 82.5589 9.01339V6.76329C82.4531 6.50264 82.3098 6.2589 82.1333 6.03984C81.9642 5.82366 81.7674 5.63053 81.5482 5.46535C81.3333 5.30665 81.0969 5.17948 80.846 5.08768C80.5997 5.00191 80.3409 4.95699 80.08 4.95469C79.7095 4.94803 79.3433 5.03589 79.0162 5.21002C78.7087 5.37423 78.4387 5.60068 78.2236 5.87494C77.994 6.15624 77.8141 6.47467 77.6916 6.81649C77.5755 7.15918 77.5162 7.51855 77.5161 7.88037C77.5145 8.25555 77.5849 8.62755 77.7235 8.97617C77.8531 9.3103 78.0444 9.61706 78.2874 9.88046C78.5241 10.1373 78.8075 10.3467 79.1226 10.4975C79.4668 10.6502 79.8423 10.7194 80.2183 10.6997V10.7262Z" fill="#00639A"/>
<path d="M88.8097 11.7901C88.31 11.7946 87.8162 11.6816 87.3681 11.4603C86.9347 11.2502 86.549 10.9533 86.2351 10.5879C85.9138 10.2173 85.6648 9.78966 85.501 9.32725C85.3265 8.85384 85.2382 8.353 85.2404 7.84845C85.2365 7.3195 85.3247 6.79389 85.501 6.29518C85.6609 5.8246 85.9102 5.38931 86.2351 5.0132C86.5492 4.64945 86.9349 4.3543 87.3681 4.14613C87.8231 3.92962 88.3218 3.82043 88.8256 3.82697C89.425 3.81107 90.0151 3.97807 90.5172 4.30573C90.9923 4.62051 91.3993 5.02752 91.7141 5.50259V3.96528H92.8737V11.6093C92.8835 12.1146 92.7761 12.6153 92.5599 13.0721C92.3584 13.4839 92.0698 13.8469 91.7141 14.136C91.3431 14.4309 90.9186 14.6512 90.464 14.785C89.9676 14.9365 89.4511 15.0119 88.932 15.0084C88.1961 15.0379 87.4646 14.8825 86.8043 14.5562C86.2552 14.2528 85.7851 13.8246 85.4319 13.3062L86.1925 12.6359C86.4829 13.0814 86.8919 13.4369 87.3734 13.6626C87.8737 13.8926 88.4187 14.0089 88.9693 14.003C89.3134 14.0028 89.6556 13.9526 89.9853 13.8541C90.2898 13.7603 90.5734 13.6086 90.8204 13.4072C91.0625 13.2059 91.2569 12.9534 91.3896 12.6678C91.5427 12.3345 91.6173 11.9706 91.6077 11.604V10.2422C91.3121 10.7122 90.9045 11.1015 90.4215 11.3752C90.1837 11.5081 89.9298 11.61 89.6661 11.6784C89.3868 11.753 89.0988 11.7906 88.8097 11.7901ZM89.214 10.7262C89.487 10.7283 89.7579 10.6777 90.0119 10.5773C90.2672 10.4811 90.5073 10.3486 90.7247 10.1837C90.9282 10.0347 91.1076 9.85529 91.2566 9.65173C91.3963 9.46025 91.4975 9.24345 91.5545 9.01339V6.76329C91.4488 6.50264 91.3054 6.2589 91.1289 6.03984C90.9598 5.82366 90.7631 5.63053 90.5438 5.46535C90.3289 5.30665 90.0925 5.17948 89.8417 5.08768C89.5953 5.00191 89.3365 4.95699 89.0757 4.95469C88.7051 4.94803 88.339 5.03589 88.0118 5.21002C87.7043 5.37423 87.4344 5.60068 87.2192 5.87494C86.999 6.15816 86.8282 6.47647 86.7138 6.81649C86.5977 7.15918 86.5384 7.51855 86.5383 7.88037C86.5367 8.25555 86.6071 8.62755 86.7458 8.97617C86.8753 9.3103 87.0666 9.61706 87.3096 9.88046C87.5463 10.1373 87.8297 10.3467 88.1448 10.4975C88.4874 10.6493 88.8609 10.7186 89.2352 10.6997L89.214 10.7262Z" fill="#00639A"/>
<path d="M98.1508 11.8486C97.6024 11.8547 97.0588 11.746 96.555 11.5295C96.0855 11.3278 95.662 11.0328 95.3102 10.6624C94.9604 10.2913 94.6858 9.85595 94.5017 9.38041C94.3094 8.88709 94.2119 8.36192 94.2144 7.83246C94.2114 7.30468 94.3089 6.78116 94.5017 6.28983C94.6881 5.81641 94.9665 5.38464 95.3207 5.01942C95.675 4.65421 96.0981 4.36281 96.5656 4.16207C97.0696 3.94598 97.6131 3.83728 98.1614 3.8429C98.9417 3.82881 99.7071 4.05781 100.351 4.49815C100.996 4.93849 101.487 5.56838 101.757 6.30048C101.938 6.77628 102.03 7.28105 102.029 7.78991C102.029 7.8963 102.029 7.99736 102.029 8.08247C102.034 8.15154 102.034 8.22087 102.029 8.28993H95.5868C95.607 8.65825 95.6973 9.01934 95.8528 9.35382C95.9913 9.65887 96.1862 9.935 96.4273 10.1677C96.6642 10.3902 96.9377 10.5702 97.2359 10.6996C97.5389 10.8273 97.8645 10.8924 98.1933 10.8911C98.4289 10.891 98.6633 10.8588 98.8902 10.7954C99.1117 10.7318 99.3258 10.6444 99.5285 10.5347C99.7243 10.4283 99.9035 10.2939 100.06 10.1358C100.208 9.98185 100.326 9.80136 100.406 9.60383L101.534 9.91767C101.402 10.2081 101.222 10.4743 101.002 10.7049C100.775 10.9443 100.515 11.1502 100.231 11.3167C99.9258 11.4957 99.5984 11.6334 99.2572 11.7263C98.8955 11.8159 98.5234 11.857 98.1508 11.8486ZM100.81 7.31116C100.784 6.95858 100.692 6.61403 100.539 6.29515C100.395 5.99831 100.199 5.72984 99.9594 5.50257C99.7263 5.27523 99.4519 5.09465 99.1508 4.97063C98.5221 4.72177 97.8221 4.72177 97.1933 4.97063C96.8931 5.09333 96.6202 5.27411 96.3901 5.50257C96.1525 5.72766 95.9609 5.99686 95.8262 6.29515C95.6805 6.6122 95.5922 6.9526 95.5656 7.30051L100.81 7.31116Z" fill="#00639A"/>
<path d="M107.321 5.1046C106.709 5.11186 106.111 5.28663 105.592 5.60994C105.099 5.91733 104.724 6.38216 104.528 6.92916V11.7166H103.225V3.96624H104.443V5.75888C104.692 5.24914 105.056 4.80463 105.507 4.46094C105.911 4.15431 106.395 3.96974 106.901 3.929H107.156C107.214 3.92275 107.273 3.92275 107.332 3.929L107.321 5.1046Z" fill="#00639A"/>
<path d="M39.249 3.35154C39.9159 3.35154 40.4565 2.81091 40.4565 2.14402C40.4565 1.47714 39.9159 0.936523 39.249 0.936523C38.5821 0.936523 38.0415 1.47714 38.0415 2.14402C38.0415 2.81091 38.5821 3.35154 39.249 3.35154Z" fill="#00639A"/>
<path d="M109.45 7.08259C110.03 7.08259 110.5 6.78346 110.5 6.41446C110.5 6.04546 110.03 5.74634 109.45 5.74634C108.869 5.74634 108.399 6.04546 108.399 6.41446C108.399 6.78346 108.869 7.08259 109.45 7.08259Z" fill="#00639A"/>
<path d="M112.2 6.74845C112.587 6.74845 112.901 6.59888 112.901 6.41439C112.901 6.22989 112.587 6.08032 112.2 6.08032C111.814 6.08032 111.5 6.22989 111.5 6.41439C111.5 6.59888 111.814 6.74845 112.2 6.74845Z" fill="#00639A"/>
</g>
</svg>
