<svg width="128" height="128" viewBox="0 0 128 128" fill="none" xmlns="http://www.w3.org/2000/svg">
  <g filter="url(#filter0_d_4570_45816)">
    <mask id="mask0_4570_45816" style="mask-type:alpha" maskUnits="userSpaceOnUse" x="2" y="1" width="124" height="124">
      <circle cx="64" cy="63" r="62" fill="#F52A2A" />
      <circle cx="64" cy="63" r="62" stroke="black" />
    </mask>
    <g mask="url(#mask0_4570_45816)">
      <circle cx="64" cy="62" r="64" fill="#ECE7F4" />
      <path d="M103 90V39C103 38.4477 102.552 38 102 38H26C25.4477 38 25 38.4477 25 39V90H103Z" stroke="#8F949C"
        stroke-width="4" />
      <g opacity="0.8">
        <line x1="56" y1="92" x2="74" y2="92" stroke="white" stroke-width="2" />
        <line x1="56" y1="92" x2="74" y2="92" stroke="white" stroke-width="2" />
        <line x1="56" y1="92" x2="74" y2="92" stroke="white" stroke-width="2" />
        <line x1="56" y1="92" x2="74" y2="92" stroke="white" stroke-width="2" />
      </g>
      <path
        d="M39 23.75H77.0635C77.1155 23.75 77.1662 23.7664 77.208 23.7959L77.2471 23.8301L83.4502 30.5107L90.1768 37.2373C90.2236 37.2842 90.25 37.3478 90.25 37.4141V89C90.25 89.1381 90.1381 89.25 90 89.25H39C38.8619 89.25 38.75 89.1381 38.75 89V24C38.75 23.8619 38.8619 23.75 39 23.75Z"
        fill="#6940A5" stroke="#6940A5" stroke-width="1.5" />
      <path
        d="M39 23.75H76.5C76.6381 23.75 76.75 23.8619 76.75 24V36.75C76.75 37.3023 77.1977 37.75 77.75 37.75H90C90.1381 37.75 90.25 37.8619 90.25 38V89C90.25 89.1381 90.1381 89.25 90 89.25H39C38.8619 89.25 38.75 89.1381 38.75 89V24C38.75 23.8619 38.8619 23.75 39 23.75Z"
        fill="white" stroke="#6940A5" stroke-width="1.5" />
      <mask id="path-7-inside-1_4570_45816" fill="white">
        <rect x="44" y="42" width="40.75" height="22" rx="1" />
      </mask>
      <rect x="44" y="42" width="40.75" height="22" rx="1" stroke="#6940A5" stroke-width="3"
        mask="url(#path-7-inside-1_4570_45816)" />
      <path
        d="M45 53H53.6893C53.8883 53 54.079 52.921 54.2197 52.7803L56.548 50.452C56.9635 50.0365 57.6738 50.2386 57.8084 50.8106L58.8576 55.2696C59.0334 56.017 60.0854 56.0487 60.306 55.3134L62.9268 46.5775C63.1621 45.7929 64.3052 45.8998 64.391 46.7145L65.6829 58.9872C65.7648 59.7655 66.8344 59.9139 67.1251 59.1872L70.3797 51.0507C70.6201 50.4498 71.4575 50.415 71.7469 50.9938L74.1902 55.8805C74.4891 56.4781 75.3613 56.4161 75.5726 55.7823L76.3291 53.5128C76.4311 53.2066 76.7177 53 77.0406 53H84"
        stroke="#6940A5" stroke-width="1.5" />
      <rect x="44.5" y="69.5" width="39.75" height="1" rx="0.5" fill="#8F949C" stroke="#6940A5" />
      <rect x="44.5" y="76" width="39.75" height="1" rx="0.5" fill="#8F949C" stroke="#6940A5" />
      <rect x="44.5" y="82.5" width="20" height="1" rx="0.5" fill="#8F949C" stroke="#6940A5" />
      <mask id="path-12-inside-2_4570_45816" fill="white">
        <path d="M23 92H105V91C105 89.3431 103.657 88 102 88H26C24.3431 88 23 89.3431 23 91V92Z" />
      </mask>
      <path
        d="M23 92V96H19V92H23ZM105 92H109V96H105V92ZM23 88H105V96H23V88ZM101 92V91H109V92H101ZM102 92H26V84H102V92ZM27 91V92H19V91H27ZM26 92C26.5523 92 27 91.5523 27 91H19C19 87.134 22.134 84 26 84V92ZM101 91C101 91.5523 101.448 92 102 92V84C105.866 84 109 87.134 109 91H101Z"
        fill="#8F949C" mask="url(#path-12-inside-2_4570_45816)" />
      <path d="M18 90H111C111 93.3137 108.314 96 105 96H24C20.6863 96 18 93.3137 18 90Z" fill="#8F949C" />
      <line x1="56" y1="91.75" x2="74" y2="91.75" stroke="white" stroke-width="2" />
      <line x1="56" y1="91.75" x2="74" y2="91.75" stroke="white" stroke-width="2" />
      <line x1="56" y1="91.75" x2="74" y2="91.75" stroke="white" stroke-width="2" />
      <line x1="56" y1="91.75" x2="74" y2="91.75" stroke="white" stroke-width="2" />
    </g>
    <circle cx="110" cy="109" r="11" fill="white" />
    <path
      d="M110 93C101.2 93 94 100.2 94 109C94 117.8 101.2 125 110 125C118.8 125 126 117.8 126 109C126 100.2 118.8 93 110 93ZM116.72 106.28L109.04 113.96C108.4 114.6 107.44 114.6 106.8 113.96L103.28 110.44C102.64 109.8 102.64 108.84 103.28 108.2C103.92 107.56 104.88 107.56 105.52 108.2L107.92 110.6L114.48 104.04C115.12 103.4 116.08 103.4 116.72 104.04C117.36 104.68 117.36 105.64 116.72 106.28Z"
      fill="#0F7B6C" />
  </g>
  <defs>
    <filter id="filter0_d_4570_45816" x="0" y="0" width="128" height="128" filterUnits="userSpaceOnUse"
      color-interpolation-filters="sRGB">
      <feFlood flood-opacity="0" result="BackgroundImageFix" />
      <feColorMatrix in="SourceAlpha" type="matrix" values="0 0 0 0 0 0 0 0 0 0 0 0 0 0 0 0 0 0 127 0"
        result="hardAlpha" />
      <feOffset dy="1" />
      <feGaussianBlur stdDeviation="1" />
      <feComposite in2="hardAlpha" operator="out" />
      <feColorMatrix type="matrix" values="0 0 0 0 0 0 0 0 0 0 0 0 0 0 0 0 0 0 0.15 0" />
      <feBlend mode="normal" in2="BackgroundImageFix" result="effect1_dropShadow_4570_45816" />
      <feBlend mode="normal" in="SourceGraphic" in2="effect1_dropShadow_4570_45816" result="shape" />
    </filter>
  </defs>
</svg>
