<svg width="32" height="32" viewBox="0 0 32 32" fill="none" xmlns="http://www.w3.org/2000/svg">
  <path
    d="M25.8 2H6.20001C3.82 2 2 3.82001 2 6.2V25.8C2 28.18 3.82 30 6.20001 30H25.8C28.18 30 30 28.18 30 25.8V6.2C30 3.82001 28.18 2 25.8 2ZM16 7.60001C18.1 7.60001 19.92 9.28002 19.92 11.52C19.92 13.76 18.24 15.44 16 15.44C13.7601 15.44 12.08 13.76 12.08 11.52C12.08 9.28002 13.9 7.60001 16 7.60001ZM22.44 24.2601C22.3 24.2601 22.1601 24.4 21.88 24.4H9.98001C9.14001 24.4 8.58 23.7 8.58 23.0001C8.58 22.86 8.58 22.72 8.72001 22.44C10.26 18.3801 14.74 16.42 18.8001 17.9601C20.9001 18.8001 22.44 20.34 23.28 22.44C23.56 23.28 23.14 23.98 22.44 24.2601Z"
    fill="#DFAC03" />
</svg>
