<svg width="18" height="19" viewBox="0 0 18 19" fill="none" xmlns="http://www.w3.org/2000/svg">
  <path
    d="M14.25 2H3.75C2.475 2 1.5 2.975 1.5 4.25V14.75C1.5 16.025 2.475 17 3.75 17H14.25C15.525 17 16.5 16.025 16.5 14.75V4.25C16.5 2.975 15.525 2 14.25 2ZM9 5C10.125 5 11.1 5.9 11.1 7.1C11.1 8.3 10.2 9.2 9 9.2C7.8 9.2 6.9 8.3 6.9 7.1C6.9 5.9 7.875 5 9 5ZM12.45 13.925C12.375 13.925 12.3 14 12.15 14H5.775C5.325 14 5.025 13.625 5.025 13.25C5.025 13.175 5.025 13.1 5.1 12.95C5.925 10.775 8.325 9.725 10.5 10.55C11.625 11 12.45 11.825 12.9 12.95C13.05 13.4 12.825 13.775 12.45 13.925Z"
    fill="#DFAC03" />
</svg>
