<svg width="24" height="25" viewBox="0 0 24 25" fill="none" xmlns="http://www.w3.org/2000/svg">
<path d="M11.29 15.9878C11.247 16.0353 11.2069 16.0854 11.17 16.1378C11.1322 16.1935 11.1019 16.254 11.08 16.3178C11.0512 16.3744 11.031 16.4351 11.02 16.4978C11.0151 16.5643 11.0151 16.6312 11.02 16.6978C11.0166 16.8289 11.044 16.9591 11.1 17.0778C11.1449 17.2018 11.2166 17.3146 11.3099 17.4079C11.4032 17.5012 11.5159 17.5728 11.64 17.6178C11.7597 17.6707 11.8891 17.698 12.02 17.698C12.1509 17.698 12.2803 17.6707 12.4 17.6178C12.5241 17.5728 12.6368 17.5012 12.7301 17.4079C12.8234 17.3146 12.8951 17.2018 12.94 17.0778C12.9844 16.9562 13.0048 16.8271 13 16.6978C13.0008 16.5661 12.9755 16.4357 12.9258 16.3138C12.876 16.192 12.8027 16.0812 12.71 15.9878C12.617 15.894 12.5064 15.8196 12.3846 15.7689C12.2627 15.7181 12.132 15.692 12 15.692C11.868 15.692 11.7373 15.7181 11.6154 15.7689C11.4936 15.8196 11.383 15.894 11.29 15.9878ZM12 2.69775C10.0222 2.69775 8.08879 3.28424 6.4443 4.38306C4.79981 5.48187 3.51809 7.04366 2.76121 8.87092C2.00433 10.6982 1.8063 12.7088 2.19215 14.6487C2.578 16.5885 3.53041 18.3703 4.92894 19.7688C6.32746 21.1673 8.10929 22.1198 10.0491 22.5056C11.9889 22.8915 13.9996 22.6934 15.8268 21.9366C17.6541 21.1797 19.2159 19.8979 20.3147 18.2535C21.4135 16.609 22 14.6756 22 12.6978C22 11.3845 21.7413 10.0842 21.2388 8.87092C20.7363 7.65766 19.9997 6.55527 19.0711 5.62669C18.1425 4.6981 17.0401 3.96151 15.8268 3.45896C14.6136 2.95641 13.3132 2.69775 12 2.69775ZM12 20.6978C10.4178 20.6978 8.87104 20.2286 7.55544 19.3495C6.23985 18.4705 5.21447 17.221 4.60897 15.7592C4.00347 14.2974 3.84504 12.6889 4.15372 11.137C4.4624 9.58518 5.22433 8.15972 6.34315 7.0409C7.46197 5.92208 8.88743 5.16015 10.4393 4.85147C11.9911 4.54279 13.5997 4.70122 15.0615 5.30672C16.5233 5.91222 17.7727 6.9376 18.6518 8.25319C19.5308 9.56879 20 11.1155 20 12.6978C20 14.8195 19.1572 16.8543 17.6569 18.3546C16.1566 19.8549 14.1217 20.6978 12 20.6978ZM12 7.69775C11.4731 7.69742 10.9553 7.83587 10.4989 8.0992C10.0425 8.36252 9.66347 8.74141 9.4 9.19775C9.32765 9.31157 9.27907 9.43885 9.25718 9.57193C9.23529 9.70501 9.24055 9.84114 9.27263 9.97214C9.30472 10.1031 9.36297 10.2263 9.44389 10.3342C9.52481 10.4421 9.62671 10.5325 9.74348 10.6C9.86024 10.6675 9.98945 10.7107 10.1233 10.7269C10.2572 10.7432 10.393 10.7322 10.5225 10.6946C10.6521 10.6571 10.7727 10.5937 10.8771 10.5083C10.9814 10.4229 11.0675 10.3173 11.13 10.1978C11.2181 10.0451 11.345 9.91854 11.4978 9.83073C11.6505 9.74293 11.8238 9.69705 12 9.69775C12.2652 9.69775 12.5196 9.80311 12.7071 9.99065C12.8946 10.1782 13 10.4325 13 10.6978C13 10.963 12.8946 11.2173 12.7071 11.4049C12.5196 11.5924 12.2652 11.6978 12 11.6978C11.7348 11.6978 11.4804 11.8031 11.2929 11.9906C11.1054 12.1782 11 12.4325 11 12.6978V13.6978C11 13.963 11.1054 14.2173 11.2929 14.4049C11.4804 14.5924 11.7348 14.6978 12 14.6978C12.2652 14.6978 12.5196 14.5924 12.7071 14.4049C12.8946 14.2173 13 13.963 13 13.6978V13.5178C13.6614 13.2778 14.2174 12.813 14.5708 12.2046C14.9242 11.5963 15.0525 10.883 14.9334 10.1896C14.8143 9.49624 14.4552 8.86677 13.919 8.41127C13.3828 7.95577 12.7035 7.70321 12 7.69775Z" fill="#42474E"/>
</svg>
